<svg width="219" height="30" viewBox="0 0 219 30" fill="none" xmlns="http://www.w3.org/2000/svg">
<path d="M4.679 16.529C5.123 16.529 5.51 16.475 5.84 16.367C6.17 16.253 6.443 16.094 6.659 15.89C6.881 15.68 7.046 15.428 7.154 15.134C7.262 14.834 7.316 14.501 7.316 14.135C7.316 13.787 7.262 13.472 7.154 13.19C7.046 12.908 6.884 12.668 6.668 12.47C6.452 12.272 6.179 12.122 5.849 12.02C5.519 11.912 5.129 11.858 4.679 11.858H2.87V16.529H4.679ZM4.679 9.986C5.549 9.986 6.302 10.088 6.938 10.292C7.574 10.496 8.099 10.781 8.513 11.147C8.927 11.513 9.233 11.951 9.431 12.461C9.635 12.971 9.737 13.529 9.737 14.135C9.737 14.765 9.632 15.344 9.422 15.872C9.212 16.394 8.897 16.844 8.477 17.222C8.057 17.6 7.529 17.894 6.893 18.104C6.263 18.314 5.525 18.419 4.679 18.419H2.87V23H0.448997V9.986H4.679Z" fill="#9C9C9C"/>
<path d="M19.5765 21.002V23H11.9535V9.986H14.3745V21.002H19.5765Z" fill="#9C9C9C"/>
<path d="M28.5411 18.086L26.9571 13.757C26.8791 13.565 26.7981 13.337 26.7141 13.073C26.6301 12.809 26.5461 12.524 26.4621 12.218C26.3841 12.524 26.3031 12.812 26.2191 13.082C26.1351 13.346 26.0541 13.577 25.9761 13.775L24.4011 18.086H28.5411ZM32.8161 23H30.9441C30.7341 23 30.5631 22.949 30.4311 22.847C30.2991 22.739 30.2001 22.607 30.1341 22.451L29.1621 19.796H23.7711L22.7991 22.451C22.7511 22.589 22.6581 22.715 22.5201 22.829C22.3821 22.943 22.2111 23 22.0071 23H20.1171L25.2381 9.986H27.7041L32.8161 23Z" fill="#9C9C9C"/>
<path d="M41.4531 12.353C41.3811 12.479 41.3031 12.572 41.2191 12.632C41.1411 12.686 41.0421 12.713 40.9221 12.713C40.7961 12.713 40.6581 12.668 40.5081 12.578C40.3641 12.482 40.1901 12.377 39.9861 12.263C39.7821 12.149 39.5421 12.047 39.2661 11.957C38.9961 11.861 38.6751 11.813 38.3031 11.813C37.9671 11.813 37.6731 11.855 37.4211 11.939C37.1691 12.017 36.9561 12.128 36.7821 12.272C36.6141 12.416 36.4881 12.59 36.4041 12.794C36.3201 12.992 36.2781 13.211 36.2781 13.451C36.2781 13.757 36.3621 14.012 36.5301 14.216C36.7041 14.42 36.9321 14.594 37.2141 14.738C37.4961 14.882 37.8171 15.011 38.1771 15.125C38.5371 15.239 38.9061 15.362 39.2841 15.494C39.6621 15.62 40.0311 15.77 40.3911 15.944C40.7511 16.112 41.0721 16.328 41.3541 16.592C41.6361 16.85 41.8611 17.168 42.0291 17.546C42.2031 17.924 42.2901 18.383 42.2901 18.923C42.2901 19.511 42.1881 20.063 41.9841 20.579C41.7861 21.089 41.4921 21.536 41.1021 21.92C40.7181 22.298 40.2471 22.598 39.6891 22.82C39.1311 23.036 38.4921 23.144 37.7721 23.144C37.3581 23.144 36.9501 23.102 36.5481 23.018C36.1461 22.94 35.7591 22.826 35.3871 22.676C35.0211 22.526 34.6761 22.346 34.3521 22.136C34.0281 21.926 33.7401 21.692 33.4881 21.434L34.1991 20.273C34.2591 20.189 34.3371 20.12 34.4331 20.066C34.5291 20.006 34.6311 19.976 34.7391 19.976C34.8891 19.976 35.0511 20.039 35.2251 20.165C35.3991 20.285 35.6061 20.42 35.8461 20.57C36.0861 20.72 36.3651 20.858 36.6831 20.984C37.0071 21.104 37.3941 21.164 37.8441 21.164C38.5341 21.164 39.0681 21.002 39.4461 20.678C39.8241 20.348 40.0131 19.877 40.0131 19.265C40.0131 18.923 39.9261 18.644 39.7521 18.428C39.5841 18.212 39.3591 18.032 39.0771 17.888C38.7951 17.738 38.4741 17.612 38.1141 17.51C37.7541 17.408 37.3881 17.297 37.0161 17.177C36.6441 17.057 36.2781 16.913 35.9181 16.745C35.5581 16.577 35.2371 16.358 34.9551 16.088C34.6731 15.818 34.4451 15.482 34.2711 15.08C34.1031 14.672 34.0191 14.171 34.0191 13.577C34.0191 13.103 34.1121 12.641 34.2981 12.191C34.4901 11.741 34.7661 11.342 35.1261 10.994C35.4861 10.646 35.9301 10.367 36.4581 10.157C36.9861 9.947 37.5921 9.842 38.2761 9.842C39.0441 9.842 39.7521 9.962 40.4001 10.202C41.0481 10.442 41.6001 10.778 42.0561 11.21L41.4531 12.353Z" fill="#9C9C9C"/>
<path d="M58.874 9.986V23H56.741V14.594C56.741 14.258 56.759 13.895 56.795 13.505L52.862 20.894C52.676 21.248 52.391 21.425 52.007 21.425H51.665C51.281 21.425 50.996 21.248 50.81 20.894L46.832 13.478C46.85 13.676 46.865 13.871 46.877 14.063C46.889 14.255 46.895 14.432 46.895 14.594V23H44.762V9.986H46.589C46.697 9.986 46.79 9.989 46.868 9.995C46.946 10.001 47.015 10.016 47.075 10.04C47.141 10.064 47.198 10.103 47.246 10.157C47.3 10.211 47.351 10.283 47.399 10.373L51.296 17.6C51.398 17.792 51.491 17.99 51.575 18.194C51.665 18.398 51.752 18.608 51.836 18.824C51.92 18.602 52.007 18.389 52.097 18.185C52.187 17.975 52.283 17.774 52.385 17.582L56.228 10.373C56.276 10.283 56.327 10.211 56.381 10.157C56.435 10.103 56.492 10.064 56.552 10.04C56.618 10.016 56.69 10.001 56.768 9.995C56.846 9.989 56.939 9.986 57.047 9.986H58.874Z" fill="#9C9C9C"/>
<path d="M69.0137 18.086L67.4297 13.757C67.3517 13.565 67.2707 13.337 67.1867 13.073C67.1027 12.809 67.0187 12.524 66.9347 12.218C66.8567 12.524 66.7757 12.812 66.6917 13.082C66.6077 13.346 66.5267 13.577 66.4487 13.775L64.8737 18.086H69.0137ZM73.2887 23H71.4167C71.2067 23 71.0357 22.949 70.9037 22.847C70.7717 22.739 70.6727 22.607 70.6067 22.451L69.6347 19.796H64.2437L63.2717 22.451C63.2237 22.589 63.1307 22.715 62.9927 22.829C62.8547 22.943 62.6837 23 62.4797 23H60.5897L65.7107 9.986H68.1767L73.2887 23Z" fill="#9C9C9C"/>
<path d="M90.691 16.493C90.691 17.447 90.532 18.323 90.214 19.121C89.896 19.919 89.449 20.606 88.873 21.182C88.297 21.758 87.604 22.205 86.794 22.523C85.984 22.841 85.084 23 84.094 23H79.135V9.986H84.094C85.084 9.986 85.984 10.148 86.794 10.472C87.604 10.79 88.297 11.237 88.873 11.813C89.449 12.383 89.896 13.067 90.214 13.865C90.532 14.663 90.691 15.539 90.691 16.493ZM88.207 16.493C88.207 15.779 88.111 15.14 87.919 14.576C87.733 14.006 87.46 13.526 87.1 13.136C86.746 12.74 86.314 12.437 85.804 12.227C85.3 12.017 84.73 11.912 84.094 11.912H81.565V21.074H84.094C84.73 21.074 85.3 20.969 85.804 20.759C86.314 20.549 86.746 20.249 87.1 19.859C87.46 19.463 87.733 18.983 87.919 18.419C88.111 17.849 88.207 17.207 88.207 16.493Z" fill="#9C9C9C"/>
<path d="M98.0039 17.96V23H95.5919V17.96L90.8489 9.986H92.9819C93.1919 9.986 93.3569 10.037 93.4769 10.139C93.6029 10.241 93.7079 10.37 93.7919 10.526L96.1679 14.873C96.3059 15.131 96.4259 15.374 96.5279 15.602C96.6359 15.83 96.7319 16.058 96.8159 16.286C96.8939 16.058 96.9839 15.83 97.0859 15.602C97.1879 15.374 97.3049 15.131 97.4369 14.873L99.8039 10.526C99.8699 10.394 99.9689 10.271 100.101 10.157C100.233 10.043 100.401 9.986 100.605 9.986H102.747L98.0039 17.96Z" fill="#9C9C9C"/>
<path d="M115.418 9.986V23H114.176C113.984 23 113.822 22.97 113.69 22.91C113.564 22.844 113.441 22.736 113.321 22.586L106.526 13.91C106.562 14.306 106.58 14.672 106.58 15.008V23H104.447V9.986H105.716C105.818 9.986 105.905 9.992 105.977 10.004C106.055 10.01 106.121 10.028 106.175 10.058C106.235 10.082 106.292 10.121 106.346 10.175C106.4 10.223 106.46 10.289 106.526 10.373L113.348 19.085C113.33 18.875 113.315 18.668 113.303 18.464C113.291 18.26 113.285 18.071 113.285 17.897V9.986H115.418Z" fill="#9C9C9C"/>
<path d="M125.552 18.086L123.968 13.757C123.89 13.565 123.809 13.337 123.725 13.073C123.641 12.809 123.557 12.524 123.473 12.218C123.395 12.524 123.314 12.812 123.23 13.082C123.146 13.346 123.065 13.577 122.987 13.775L121.412 18.086H125.552ZM129.827 23H127.955C127.745 23 127.574 22.949 127.442 22.847C127.31 22.739 127.211 22.607 127.145 22.451L126.173 19.796H120.782L119.81 22.451C119.762 22.589 119.669 22.715 119.531 22.829C119.393 22.943 119.222 23 119.018 23H117.128L122.249 9.986H124.715L129.827 23Z" fill="#9C9C9C"/>
<path d="M145.646 9.986V23H143.513V14.594C143.513 14.258 143.531 13.895 143.567 13.505L139.634 20.894C139.448 21.248 139.163 21.425 138.779 21.425H138.437C138.053 21.425 137.768 21.248 137.582 20.894L133.604 13.478C133.622 13.676 133.637 13.871 133.649 14.063C133.661 14.255 133.667 14.432 133.667 14.594V23H131.534V9.986H133.361C133.469 9.986 133.562 9.989 133.64 9.995C133.718 10.001 133.787 10.016 133.847 10.04C133.913 10.064 133.97 10.103 134.018 10.157C134.072 10.211 134.123 10.283 134.171 10.373L138.068 17.6C138.17 17.792 138.263 17.99 138.347 18.194C138.437 18.398 138.524 18.608 138.608 18.824C138.692 18.602 138.779 18.389 138.869 18.185C138.959 17.975 139.055 17.774 139.157 17.582L143 10.373C143.048 10.283 143.099 10.211 143.153 10.157C143.207 10.103 143.264 10.064 143.324 10.04C143.39 10.016 143.462 10.001 143.54 9.995C143.618 9.989 143.711 9.986 143.819 9.986H145.646Z" fill="#9C9C9C"/>
<path d="M151.34 23H148.91V9.986H151.34V23Z" fill="#9C9C9C"/>
<path d="M163.55 19.931C163.682 19.931 163.799 19.982 163.901 20.084L164.855 21.119C164.327 21.773 163.676 22.274 162.902 22.622C162.134 22.97 161.21 23.144 160.13 23.144C159.164 23.144 158.294 22.979 157.52 22.649C156.752 22.319 156.095 21.86 155.549 21.272C155.003 20.684 154.583 19.982 154.289 19.166C154.001 18.35 153.857 17.459 153.857 16.493C153.857 15.515 154.013 14.621 154.325 13.811C154.637 12.995 155.075 12.293 155.639 11.705C156.209 11.117 156.887 10.661 157.673 10.337C158.459 10.007 159.329 9.842 160.283 9.842C161.231 9.842 162.071 9.998 162.803 10.31C163.541 10.622 164.168 11.03 164.684 11.534L163.874 12.659C163.826 12.731 163.763 12.794 163.685 12.848C163.613 12.902 163.511 12.929 163.379 12.929C163.289 12.929 163.196 12.905 163.1 12.857C163.004 12.803 162.899 12.74 162.785 12.668C162.671 12.59 162.539 12.506 162.389 12.416C162.239 12.326 162.065 12.245 161.867 12.173C161.669 12.095 161.438 12.032 161.174 11.984C160.916 11.93 160.616 11.903 160.274 11.903C159.692 11.903 159.158 12.008 158.672 12.218C158.192 12.422 157.778 12.722 157.43 13.118C157.082 13.508 156.812 13.988 156.62 14.558C156.428 15.122 156.332 15.767 156.332 16.493C156.332 17.225 156.434 17.876 156.638 18.446C156.848 19.016 157.13 19.496 157.484 19.886C157.838 20.276 158.255 20.576 158.735 20.786C159.215 20.99 159.731 21.092 160.283 21.092C160.613 21.092 160.91 21.074 161.174 21.038C161.444 21.002 161.69 20.945 161.912 20.867C162.14 20.789 162.353 20.69 162.551 20.57C162.755 20.444 162.956 20.291 163.154 20.111C163.214 20.057 163.277 20.015 163.343 19.985C163.409 19.949 163.478 19.931 163.55 19.931Z" fill="#9C9C9C"/>
<path d="M173.804 12.353C173.732 12.479 173.654 12.572 173.57 12.632C173.492 12.686 173.393 12.713 173.273 12.713C173.147 12.713 173.009 12.668 172.859 12.578C172.715 12.482 172.541 12.377 172.337 12.263C172.133 12.149 171.893 12.047 171.617 11.957C171.347 11.861 171.026 11.813 170.654 11.813C170.318 11.813 170.024 11.855 169.772 11.939C169.52 12.017 169.307 12.128 169.133 12.272C168.965 12.416 168.839 12.59 168.755 12.794C168.671 12.992 168.629 13.211 168.629 13.451C168.629 13.757 168.713 14.012 168.881 14.216C169.055 14.42 169.283 14.594 169.565 14.738C169.847 14.882 170.168 15.011 170.528 15.125C170.888 15.239 171.257 15.362 171.635 15.494C172.013 15.62 172.382 15.77 172.742 15.944C173.102 16.112 173.423 16.328 173.705 16.592C173.987 16.85 174.212 17.168 174.38 17.546C174.554 17.924 174.641 18.383 174.641 18.923C174.641 19.511 174.539 20.063 174.335 20.579C174.137 21.089 173.843 21.536 173.453 21.92C173.069 22.298 172.598 22.598 172.04 22.82C171.482 23.036 170.843 23.144 170.123 23.144C169.709 23.144 169.301 23.102 168.899 23.018C168.497 22.94 168.11 22.826 167.738 22.676C167.372 22.526 167.027 22.346 166.703 22.136C166.379 21.926 166.091 21.692 165.839 21.434L166.55 20.273C166.61 20.189 166.688 20.12 166.784 20.066C166.88 20.006 166.982 19.976 167.09 19.976C167.24 19.976 167.402 20.039 167.576 20.165C167.75 20.285 167.957 20.42 168.197 20.57C168.437 20.72 168.716 20.858 169.034 20.984C169.358 21.104 169.745 21.164 170.195 21.164C170.885 21.164 171.419 21.002 171.797 20.678C172.175 20.348 172.364 19.877 172.364 19.265C172.364 18.923 172.277 18.644 172.103 18.428C171.935 18.212 171.71 18.032 171.428 17.888C171.146 17.738 170.825 17.612 170.465 17.51C170.105 17.408 169.739 17.297 169.367 17.177C168.995 17.057 168.629 16.913 168.269 16.745C167.909 16.577 167.588 16.358 167.306 16.088C167.024 15.818 166.796 15.482 166.622 15.08C166.454 14.672 166.37 14.171 166.37 13.577C166.37 13.103 166.463 12.641 166.649 12.191C166.841 11.741 167.117 11.342 167.477 10.994C167.837 10.646 168.281 10.367 168.809 10.157C169.337 9.947 169.943 9.842 170.627 9.842C171.395 9.842 172.103 9.962 172.751 10.202C173.399 10.442 173.951 10.778 174.407 11.21L173.804 12.353Z" fill="#9C9C9C"/>
<path fill-rule="evenodd" clip-rule="evenodd" d="M195.923 28.221C196.179 21.7145 196.84 4.92464 185 1.90735e-06L201.8 1.17301e-06L201.8 1.173e-06L218.6 2.34601e-06C206.76 4.92464 207.42 21.7145 207.676 28.221C207.705 28.9558 207.729 29.5594 207.729 30L201.8 30L201.8 30L195.871 30C195.871 29.5594 195.894 28.9558 195.923 28.221Z" fill="#9C9C9C"/>
<path fill-rule="evenodd" clip-rule="evenodd" d="M185 2.80774C193.768 6.41086 194.845 21.3023 194.174 30L185 30L185 2.80774Z" fill="#9C9C9C"/>
<path fill-rule="evenodd" clip-rule="evenodd" d="M209.476 30L218.6 30L218.6 2.20753C209.626 5.89465 208.708 21.405 209.476 30Z" fill="#9C9C9C"/>
</svg>
