<svg version="1.1" xmlns="http://www.w3.org/2000/svg" xmlns:xlink="http://www.w3.org/1999/xlink" width="21" height="20" viewBox="0,0,256,243.79688"><g fill="#9c9c9c" fill-rule="nonzero" stroke="none" stroke-width="1" stroke-linecap="butt" stroke-linejoin="miter" stroke-miterlimit="10" stroke-dasharray="" stroke-dashoffset="0" font-family="none" font-weight="none" font-size="none" text-anchor="none" style="mix-blend-mode: normal"><g transform="translate(0.00004,-0.00632) scale(12.19048,12.19048)"><path d="M19.9296,14.1327l-4.375,-1.875c-0.1869,-0.0797 -0.3947,-0.0965 -0.5919,-0.0478c-0.1973,0.0486 -0.3734,0.1599 -0.5019,0.3173l-1.9375,2.3672c-3.04082,-1.4337 -5.48795,-3.8808 -6.92165,-6.92157l2.36723,-1.93753c0.15769,-0.12825 0.2693,-0.30439 0.31793,-0.50175c0.04864,-0.19735 0.03165,-0.40518 -0.04839,-0.59202l-1.87504,-4.37508c-0.08784,-0.20141 -0.24322,-0.36585 -0.43932,-0.46497c-0.1961,-0.09912 -0.42065,-0.12671 -0.63491,-0.07801l-4.06257,0.93752c-0.20658,0.0477 -0.39089,0.16402 -0.52285,0.32996c-0.13196,0.16594 -0.20378,0.37171 -0.20373,0.58373c0,10.01972 8.12123,18.12532 18.1253,18.12532c0.2121,0.0001 0.418,-0.0716 0.584,-0.2036c0.166,-0.132 0.2824,-0.3163 0.3301,-0.523l0.9375,-4.0625c0.0484,-0.2154 0.0202,-0.4408 -0.0797,-0.6376c-0.0999,-0.1968 -0.2652,-0.3526 -0.4676,-0.4406z"></path></g></g></svg>