<svg width="21" height="20" viewBox="0 0 21 20" fill="none" xmlns="http://www.w3.org/2000/svg">
<path d="M19.9296 14.1327L15.5546 12.2577C15.3677 12.178 15.1599 12.1612 14.9627 12.2099C14.7654 12.2585 14.5893 12.3698 14.4608 12.5272L12.5233 14.8944C9.48248 13.4607 7.03535 11.0136 5.60165 7.97283L7.96888 6.0353C8.12657 5.90705 8.23818 5.73091 8.28681 5.53355C8.33545 5.3362 8.31846 5.12837 8.23842 4.94153L6.36338 0.566453C6.27554 0.365046 6.12016 0.200605 5.92406 0.101483C5.72796 0.00236142 5.50341 -0.0252272 5.28915 0.0234743L1.22658 0.960991C1.02 1.00869 0.835687 1.12501 0.703728 1.29095C0.571769 1.45689 0.499952 1.66266 0.5 1.87468C0.5 11.8944 8.62123 20 18.6253 20C18.8374 20.0001 19.0433 19.9284 19.2093 19.7964C19.3753 19.6644 19.4917 19.4801 19.5394 19.2734L20.4769 15.2109C20.5253 14.9955 20.4971 14.7701 20.3972 14.5733C20.2973 14.3765 20.132 14.2207 19.9296 14.1327Z" fill="white"/>
</svg>
