<svg width="361" height="467" viewBox="0 0 361 467" fill="none" xmlns="http://www.w3.org/2000/svg">
<g filter="url(#filter0_d_1_8)">
<path d="M7.09375 19.9536C7.09375 11.6694 13.8095 4.95361 22.0938 4.95361H336.727C345.011 4.95361 351.727 11.6693 351.727 19.9536V439.954C351.727 448.238 345.011 454.954 336.727 454.954H22.0937C13.8095 454.954 7.09375 448.238 7.09375 439.954V19.9536Z" fill="white"/>
</g>
<path fill-rule="evenodd" clip-rule="evenodd" d="M7.09375 30.0951L17.2013 5.76957C18.7347 5.24077 20.3807 4.95361 22.0938 4.95361H41.3358L7.09375 87.3624V30.0951ZM351.727 322.403L7.09375 324.838V304.338L351.727 301.903V322.403ZM351.727 225.426V246.272L7.09375 302.103V281.257L351.727 225.426ZM351.727 135.73V155.325L7.09375 275.514V255.919L351.727 135.73ZM351.727 30.1461V54.2661L7.09375 248.92V224.8L351.727 30.1461ZM235.379 4.95361H269.33L7.09375 215.613V188.339L235.379 4.95361ZM116.458 4.95361H144.367L7.09375 172.702V138.597L116.458 4.95361Z" fill="#F4F4F4"/>
<defs>
<filter id="filter0_d_1_8" x="0.09375" y="0.953613" width="360.633" height="466" filterUnits="userSpaceOnUse" color-interpolation-filters="sRGB">
<feFlood flood-opacity="0" result="BackgroundImageFix"/>
<feColorMatrix in="SourceAlpha" type="matrix" values="0 0 0 0 0 0 0 0 0 0 0 0 0 0 0 0 0 0 127 0" result="hardAlpha"/>
<feOffset dx="1" dy="4"/>
<feGaussianBlur stdDeviation="4"/>
<feComposite in2="hardAlpha" operator="out"/>
<feColorMatrix type="matrix" values="0 0 0 0 0 0 0 0 0 0 0 0 0 0 0 0 0 0 0.09 0"/>
<feBlend mode="normal" in2="BackgroundImageFix" result="effect1_dropShadow_1_8"/>
<feBlend mode="normal" in="SourceGraphic" in2="effect1_dropShadow_1_8" result="shape"/>
</filter>
</defs>
</svg>
