<svg width="145" height="97" viewBox="0 0 145 97" fill="none" xmlns="http://www.w3.org/2000/svg">
<path fill-rule="evenodd" clip-rule="evenodd" d="M21.8429 29.1499C21.8429 27.2169 23.4099 25.6499 25.3429 25.6499H36.0971C38.0301 25.6499 39.5971 27.2169 39.5971 29.1499C39.5971 31.0829 38.0301 32.6499 36.0971 32.6499H25.3429C23.4099 32.6499 21.8429 31.0829 21.8429 29.1499ZM13.7772 50.5293C13.7772 48.5963 15.3442 47.0293 17.2772 47.0293H36.0971C38.0301 47.0293 39.5971 48.5963 39.5971 50.5293C39.5971 52.4623 38.0301 54.0293 36.0971 54.0293H17.2772C15.3442 54.0293 13.7772 52.4623 13.7772 50.5293ZM0.87207 72.4433C0.87207 70.5103 2.43907 68.9433 4.37207 68.9433H36.0971C38.0301 68.9433 39.5971 70.5103 39.5971 72.4433C39.5971 74.3763 38.0301 75.9433 36.0971 75.9433H4.37207C2.43907 75.9433 0.87207 74.3763 0.87207 72.4433Z" fill="#51BF47"/>
<path fill-rule="evenodd" clip-rule="evenodd" d="M96.6027 82.8019C115.531 82.8019 130.875 67.5497 130.875 48.7352C130.875 29.9207 115.531 14.6685 96.6027 14.6685C77.6746 14.6685 62.3305 29.9207 62.3305 48.7352C62.3305 67.5497 77.6746 82.8019 96.6027 82.8019ZM96.6027 88.8019C118.864 88.8019 136.911 70.8634 136.911 48.7352C136.911 26.6069 118.864 8.66846 96.6027 8.66846C74.3409 8.66846 56.2943 26.6069 56.2943 48.7352C56.2943 70.8634 74.3409 88.8019 96.6027 88.8019ZM96.6033 96.543C123.166 96.543 144.698 75.1391 144.698 48.7361C144.698 22.3331 123.166 0.929199 96.6033 0.929199C70.041 0.929199 48.5081 22.3331 48.5081 48.7361C48.5081 75.1391 70.041 96.543 96.6033 96.543ZM100.103 29.1499C100.103 27.2169 98.5358 25.6499 96.6028 25.6499C94.6698 25.6499 93.1028 27.2169 93.1028 29.1499V50.1134C93.1028 51.3115 93.5806 52.4602 94.4304 53.3049L107.847 66.6411C109.218 68.0038 111.434 67.9972 112.797 66.6262C114.159 65.2553 114.153 63.0392 112.782 61.6765L100.103 49.0734V29.1499Z" fill="#51BF47"/>
</svg>
