<svg width="105" height="121" viewBox="0 0 105 121" fill="none" xmlns="http://www.w3.org/2000/svg">
<path fill-rule="evenodd" clip-rule="evenodd" d="M3.71676 15.5054C1.63105 15.6637 0.0195152 17.4022 0.0195313 19.4939L0.0199254 70.9738C0.0200376 85.6278 8.2347 99.045 21.2861 105.708L50.2655 120.504C51.4086 121.087 52.7624 121.087 53.9052 120.503L82.8307 105.714C95.8712 99.0465 104.077 85.6352 104.077 70.9891V19.4932C104.077 17.4018 102.466 15.6634 100.38 15.5047L93.624 14.9904C80.7134 14.0077 68.2343 9.90606 57.2583 3.03764L54.2078 1.12871C52.9096 0.31638 51.2617 0.316479 49.9636 1.12896L46.9292 3.02833C35.9466 9.90273 23.4586 14.0068 10.5391 14.9875L3.71676 15.5054ZM52.048 94.3413C70.7229 94.3413 85.8618 79.2931 85.8618 60.7302C85.8618 42.1673 70.7229 27.1191 52.048 27.1191C33.3731 27.1191 18.2342 42.1673 18.2342 60.7302C18.2342 79.2931 33.3731 94.3413 52.048 94.3413Z" fill="#51BF47"/>
<path fill-rule="evenodd" clip-rule="evenodd" d="M3.79245 16.5025C2.22817 16.6213 1.01952 17.9252 1.01953 19.4939L1.01993 70.9738C1.02003 85.2521 9.02406 98.3252 21.7409 104.818L50.7202 119.613C51.5775 120.051 52.5929 120.05 53.45 119.612L82.3755 104.823C95.0816 98.3271 103.077 85.2596 103.077 70.9891V19.4932C103.077 17.9246 101.869 16.6209 100.305 16.5018L93.5481 15.9875C80.4762 14.9926 67.841 10.8396 56.7278 3.88534L53.6773 1.97641C52.7037 1.36717 51.4677 1.36724 50.4942 1.97661L47.4598 3.87597C36.3399 10.8363 23.6958 14.9916 10.6148 15.9846L3.79245 16.5025ZM86.8618 60.7302C86.8618 79.8511 71.2695 95.3413 52.048 95.3413C32.8265 95.3413 17.2342 79.8511 17.2342 60.7302C17.2342 41.6094 32.8265 26.1191 52.048 26.1191C71.2695 26.1191 86.8618 41.6094 86.8618 60.7302ZM0.0195313 19.4939C0.0195152 17.4022 1.63105 15.6637 3.71676 15.5054L10.5391 14.9875C23.4586 14.0068 35.9466 9.90273 46.9292 3.02833L49.9636 1.12896C51.2617 0.316479 52.9096 0.31638 54.2078 1.12871L57.2583 3.03764C68.2343 9.90606 80.7134 14.0077 93.624 14.9904L100.38 15.5047C102.466 15.6634 104.077 17.4018 104.077 19.4932V70.9891C104.077 85.6352 95.8712 99.0465 82.8307 105.714L53.9052 120.503C52.7624 121.087 51.4086 121.087 50.2655 120.504L21.2861 105.708C8.2347 99.045 0.0200376 85.6278 0.0199254 70.9738L0.0195313 19.4939ZM85.8618 60.7302C85.8618 79.2931 70.7229 94.3413 52.048 94.3413C33.3731 94.3413 18.2342 79.2931 18.2342 60.7302C18.2342 42.1673 33.3731 27.1191 52.048 27.1191C70.7229 27.1191 85.8618 42.1673 85.8618 60.7302Z" fill="#51BF47"/>
<path fill-rule="evenodd" clip-rule="evenodd" d="M66.9084 51.3304C68.2711 52.7013 68.2645 54.9174 66.8935 56.2801L51.07 72.0086C49.3576 73.7108 46.6071 73.7582 44.837 72.116L37.2888 65.1131C35.8718 63.7984 35.7888 61.5839 37.1035 60.1668C38.4182 58.7497 40.6327 58.6668 42.0498 59.9815L47.8379 65.3515L61.9587 51.3155C63.3296 49.9528 65.5457 49.9594 66.9084 51.3304Z" fill="#51BF47"/>
</svg>
