<svg width="136" height="121" viewBox="0 0 136 121" fill="none" xmlns="http://www.w3.org/2000/svg">
<path d="M50.6794 50.6409L65.9181 58.4322V76.8027L50.6794 69.0114V50.6409Z" fill="#51BF47"/>
<path fill-rule="evenodd" clip-rule="evenodd" d="M50.6794 50.6409V69.0114L65.9181 76.8027V58.4322L50.6794 50.6409ZM51.6794 52.2753V68.3995L64.9181 75.1683V59.044L51.6794 52.2753Z" fill="#51BF47"/>
<path d="M85.0908 50.6409L69.8521 58.4322V76.8027L85.0908 69.0114V50.6409Z" fill="#51BF47"/>
<path fill-rule="evenodd" clip-rule="evenodd" d="M85.0908 50.6409V69.0114L69.8521 76.8027V58.4322L85.0908 50.6409ZM84.0908 52.2753V68.3995L70.8521 75.1683V59.044L84.0908 52.2753Z" fill="#51BF47"/>
<path d="M83.091 47.6741L67.9443 55.8777L52.6027 47.6741L67.7929 41.0347L83.091 47.6741Z" fill="#51BF47"/>
<path fill-rule="evenodd" clip-rule="evenodd" d="M83.091 47.6741L67.7929 41.0347L52.6027 47.6741L67.9443 55.8777L83.091 47.6741ZM80.8113 47.7742L67.7919 42.1237L54.8896 47.7632L67.9436 54.7435L80.8113 47.7742Z" fill="#51BF47"/>
<path fill-rule="evenodd" clip-rule="evenodd" d="M110.669 54.7608C117.005 45.1703 117.535 37.9157 115.081 33.6902C112.627 29.4646 106.041 26.2935 94.5173 26.9528C83.3891 27.5895 69.4755 31.8179 55.6302 39.7636C41.7849 47.7093 31.1441 57.5723 25.0253 66.8335C18.6889 76.424 18.159 83.6785 20.6133 87.9041C23.0677 92.1297 29.6531 95.3008 41.177 94.6415C52.3052 94.0048 66.2188 89.7763 80.0641 81.8307C93.9094 73.885 104.55 64.0219 110.669 54.7608ZM83.0777 87.019C112.038 70.3988 128.696 45.1856 120.285 30.7037C111.873 16.2217 81.5772 17.9551 52.6167 34.5753C23.6561 51.1954 6.99783 76.4086 15.4094 90.8906C23.821 105.373 54.1171 103.639 83.0777 87.019Z" fill="#51BF47"/>
<path fill-rule="evenodd" clip-rule="evenodd" d="M84.0326 20.9476C78.8566 10.7205 72.7997 6.60986 67.8468 6.60986C62.894 6.60986 56.8371 10.7205 51.6611 20.9476C46.6564 30.8362 43.3858 44.9163 43.3858 60.7968C43.3858 76.6772 46.6564 90.7573 51.6611 100.646C56.8371 110.873 62.894 114.984 67.8468 114.984C72.7997 114.984 78.8566 110.873 84.0326 100.646C89.0373 90.7573 92.3078 76.6772 92.3078 60.7968C92.3078 44.9163 89.0373 30.8362 84.0326 20.9476ZM98.3078 60.7968C98.3078 27.5565 84.67 0.609861 67.8468 0.609862C51.0237 0.609863 37.3858 27.5565 37.3858 60.7968C37.3858 94.0371 51.0237 120.984 67.8468 120.984C84.67 120.984 98.3078 94.0371 98.3078 60.7968Z" fill="#51BF47"/>
<path fill-rule="evenodd" clip-rule="evenodd" d="M41.1768 26.9524C29.6529 26.2931 23.0675 29.4642 20.6131 33.6898C18.1588 37.9154 18.6887 45.1699 25.0251 54.7604C31.1439 64.0216 41.7847 73.8846 55.63 81.8303C69.4753 89.776 83.3889 94.0044 94.5171 94.6411C106.041 95.3005 112.626 92.1293 115.081 87.9038C117.535 83.6782 117.005 76.4236 110.669 66.8332C104.55 57.572 93.9092 47.7089 80.0639 39.7632C66.2186 31.8176 52.305 27.5891 41.1768 26.9524ZM83.0775 34.5749C54.1169 17.9548 23.8208 16.2214 15.4092 30.7033C6.99764 45.1853 23.6559 70.3985 52.6165 87.0186C81.577 103.639 111.873 105.372 120.285 90.8902C128.696 76.4083 112.038 51.1951 83.0775 34.5749Z" fill="#51BF47"/>
</svg>
