<svg width="163" height="137" viewBox="0 0 163 137" fill="none" xmlns="http://www.w3.org/2000/svg">
<path d="M16.5442 24.1372C16.4923 22.2054 18.9461 21.3403 20.1304 22.8728L26.1936 30.7186C26.7234 31.4042 27.6341 31.6733 28.4503 31.3855L37.812 28.0847C39.6413 27.4397 41.2344 29.5119 40.1341 31.1051L34.5235 39.2288C34.0305 39.9427 34.057 40.8938 34.589 41.5822L40.6354 49.4063C41.8209 50.9404 40.3517 53.0861 38.4904 52.5391L28.9411 49.7329C28.1115 49.4891 27.2202 49.8034 26.7306 50.5124L21.0948 58.6726C19.9962 60.2632 17.4951 59.5173 17.4431 57.5836L17.1781 47.7211C17.1547 46.8533 16.5723 46.0982 15.737 45.8527L6.23046 43.059C4.3661 42.5111 4.28954 39.9043 6.11887 39.2593L15.4806 35.9585C16.2967 35.6707 16.8333 34.8913 16.81 34.0272L16.5442 24.1372Z" fill="#51BF47"/>
<path d="M148.252 29.6866C148.304 27.7548 145.851 26.8896 144.666 28.4221L139.716 34.8272C139.187 35.5128 138.276 35.7819 137.46 35.4941L129.821 32.8007C127.991 32.1557 126.398 34.2278 127.499 35.821L132.075 42.4469C132.568 43.1608 132.541 44.1119 132.009 44.8004L127.076 51.1837C125.891 52.7177 127.36 54.8635 129.221 54.3165L137.018 52.0254C137.847 51.7816 138.739 52.0958 139.228 52.8048L143.83 59.4672C144.928 61.0579 147.429 60.312 147.481 58.3783L147.698 50.3319C147.721 49.464 148.303 48.7089 149.139 48.4634L156.892 46.1849C158.757 45.637 158.833 43.0301 157.004 42.3851L149.365 39.6917C148.549 39.4039 148.012 38.6245 148.035 37.7604L148.252 29.6866Z" fill="#51BF47"/>
<path d="M85.5844 1.4763C84.9836 -0.361833 82.3832 -0.361839 81.7824 1.47629L77.7695 13.7525C77.5007 14.5748 76.7337 15.1311 75.8685 15.1311L62.9084 15.1311C60.968 15.1311 60.1644 17.6165 61.7374 18.7525L72.2017 26.3096C72.9069 26.8189 73.202 27.7256 72.9317 28.5524L68.9299 40.795C68.3283 42.6355 70.4321 44.1715 72.0019 43.0378L82.5124 35.4472C83.2115 34.9424 84.1553 34.9424 84.8543 35.4472L95.3649 43.0378C96.9347 44.1715 99.0385 42.6355 98.4369 40.795L94.435 28.5524C94.1648 27.7256 94.4599 26.8189 95.1651 26.3096L105.629 18.7525C107.202 17.6165 106.399 15.1311 104.458 15.1311L91.4983 15.1311C90.6331 15.1311 89.866 14.5748 89.5972 13.7525L85.5844 1.4763Z" fill="#51BF47"/>
<path d="M38.0205 89.6338C38.0205 87.9769 39.3637 86.6338 41.0205 86.6338H51.3727C53.0295 86.6338 54.3727 87.9769 54.3727 89.6338V129.879C54.3727 131.535 53.0295 132.879 51.3727 132.879H41.0205C39.3637 132.879 38.0205 131.535 38.0205 129.879V89.6338Z" fill="#51BF47"/>
<path fill-rule="evenodd" clip-rule="evenodd" d="M89.9222 58.2234C92.6775 57.8434 96.3449 58.6779 98.2115 61.6259L98.2276 61.6513L98.2433 61.677C100.55 65.4623 100.691 70.5808 100.318 74.9017C100.06 77.902 99.5115 80.9087 98.9361 83.5135C102.807 83.0884 106.128 83.0502 108.915 83.3507C112.47 83.7341 115.512 84.7075 117.63 86.4961C119.948 88.4537 120.899 91.1935 120.323 94.0495C119.955 95.8728 119.009 97.5609 117.744 99.0645C119.588 101.209 120.576 103.675 120.09 106.411C119.678 108.729 118.285 110.606 116.722 112.091C117.954 114.387 118.011 116.999 117.164 119.278C116.339 121.498 114.672 123.406 112.443 124.577C113.035 126.659 112.907 128.693 112.137 130.49C111.151 132.793 109.228 134.414 107.156 135.103C106.465 135.333 105.58 135.47 104.803 135.568C103.943 135.676 102.904 135.771 101.754 135.851C99.4479 136.012 96.5795 136.123 93.5655 136.16C87.6273 136.232 80.7574 136.02 76.4755 135.223C75.2122 134.987 73.6692 134.43 72.2147 133.838C70.6955 133.219 69.0288 132.459 67.4362 131.697C64.2475 130.172 61.2267 128.579 60.0384 127.944C58.5648 127.158 57.6631 125.628 57.6631 123.981V94.3144C57.6631 92.8565 58.3689 91.4676 59.5996 90.6169C61.2856 89.4514 68.3878 84.5561 70.7945 83.2318C75.9762 80.3013 78.305 78.3086 79.7058 76.062C81.1655 73.7211 81.8813 70.7181 82.838 64.9411C83.5387 60.7098 86.8831 58.6426 89.9222 58.2234ZM90.0392 65.4842C89.9316 65.5757 89.8039 65.7228 89.7439 66.0848C88.8164 71.6859 87.9529 76.0658 85.6457 79.7658C83.2814 83.5575 79.6597 86.2617 74.2203 89.3363L74.1998 89.3478L74.1792 89.3591C72.4879 90.2853 67.3049 93.8133 64.6631 95.6287V122.471C66.1123 123.23 68.2487 124.326 70.4561 125.382C71.984 126.113 73.5138 126.808 74.8553 127.355C76.2615 127.927 77.2433 128.245 77.7572 128.341C81.3047 129.002 87.5731 129.232 93.4806 129.16C96.3894 129.125 99.1207 129.018 101.266 128.868C102.341 128.793 103.241 128.709 103.929 128.623C104.568 128.542 104.865 128.478 104.933 128.463C104.948 128.46 104.952 128.459 104.947 128.46C105.207 128.374 105.54 128.114 105.703 127.734C105.816 127.469 105.985 126.833 105.371 125.666C104.566 124.135 104.767 122.522 105.298 121.375C105.827 120.231 106.888 119.092 108.46 118.664C109.612 118.35 110.328 117.578 110.603 116.839C110.858 116.151 110.753 115.524 110.252 114.991C108.634 113.27 108.218 109.924 110.746 107.991C112.613 106.562 113.122 105.614 113.198 105.186C113.198 105.185 113.199 105.183 113.199 105.182C113.216 105.099 113.377 104.297 111.389 102.601C109.27 100.792 109.243 97.5206 111.301 95.6701C112.818 94.3057 113.348 93.2273 113.461 92.6657C113.522 92.3632 113.519 92.187 113.114 91.8444C112.508 91.333 111.055 90.6221 108.164 90.3104C105.34 90.0058 101.467 90.1183 96.3983 90.9157C93.3042 91.4025 90.4698 88.593 91.3019 85.3399C92.0815 82.2925 93.0062 78.2197 93.3443 74.3002C93.6923 70.2658 93.3393 67.1654 92.3177 65.407C92.2857 65.3821 92.2011 65.3247 92.0316 65.2638C91.7197 65.1516 91.2994 65.0997 90.8787 65.1577C90.4616 65.2153 90.1866 65.3588 90.0392 65.4842Z" fill="#51BF47"/>
</svg>
