<svg width="135" height="159" viewBox="0 0 135 159" fill="none" xmlns="http://www.w3.org/2000/svg">
<path fill-rule="evenodd" clip-rule="evenodd" d="M68.4629 0C70.1198 0 71.4629 1.34315 71.4629 3V37C71.4629 38.6569 70.1198 40 68.4629 40C66.806 40 65.4629 38.6569 65.4629 37V3C65.4629 1.34315 66.806 0 68.4629 0ZM11.1863 15.3268C12.506 14.3251 14.388 14.5829 15.3896 15.9027L30.0257 35.1863C31.0274 36.506 30.7695 38.388 29.4498 39.3896C28.13 40.3913 26.2481 40.1335 25.2464 38.8137L10.6104 19.5301C9.60866 18.2104 9.86651 16.3285 11.1863 15.3268ZM123.814 15.3268C125.133 16.3285 125.391 18.2104 124.39 19.5301L109.754 38.8137C108.752 40.1335 106.87 40.3913 105.55 39.3896C104.23 38.388 103.973 36.506 104.974 35.1863L119.61 15.9027C120.612 14.5829 122.494 14.3251 123.814 15.3268Z" fill="#51BF47"/>
<path d="M128 72.5C128 79.4036 122.18 85 115 85C107.82 85 102 79.4036 102 72.5C102 65.5964 107.82 60 115 60C122.18 60 128 65.5964 128 72.5Z" fill="#51BF47"/>
<path d="M135 100.185C135 93.3295 135 88.513 135 88.513H95C95 88.513 95 84.2708 95 100.185C95 116.099 103.954 129 115 129C126.046 129 135 116.099 135 100.185Z" fill="#51BF47"/>
<path d="M33 72.5C33 79.4036 27.1797 85 20 85C12.8203 85 7 79.4036 7 72.5C7 65.5964 12.8203 60 20 60C27.1797 60 33 65.5964 33 72.5Z" fill="#51BF47"/>
<path d="M40 100.185C40 93.3295 40 88.513 40 88.513H0C0 88.513 0 84.2708 0 100.185C0 116.099 8.9543 129 20 129C31.0457 129 40 116.099 40 100.185Z" fill="#51BF47"/>
<path d="M99 115.531C99 105.189 99 87.6338 99 87.6338H35C35 87.6338 35 91.5236 35 115.531C35 139.538 49.3269 159 67 159C84.6731 159 99 139.538 99 115.531Z" fill="white"/>
<path d="M85 76.5C85 86.165 77.165 94 67.5 94C57.835 94 50 86.165 50 76.5C50 66.835 57.835 59 67.5 59C77.165 59 85 66.835 85 76.5Z" fill="#51BF47"/>
<path d="M95 114.643C95 105.279 95 98.7007 95 98.7007H40C40 98.7007 40 92.9064 40 114.643C40 136.379 52.3122 154 67.5 154C82.6878 154 95 136.379 95 114.643Z" fill="#51BF47"/>
</svg>
