<svg width="265" height="165" viewBox="0 0 265 165" fill="none" xmlns="http://www.w3.org/2000/svg">
<path d="M158.561 86.8026L176.478 104.72L205.505 75.6938" stroke="#51BF47" stroke-width="8" stroke-linecap="square"/>
<path d="M195.162 70.0762H211.622V86.5028" stroke="#51BF47" stroke-width="8" stroke-linecap="square"/>
<path d="M153.984 41.2263H178.551V65.7424" stroke="#51BF47" stroke-width="8" stroke-linecap="square"/>
<path d="M97.6094 82.8779L117.025 102.293L172.997 46.321" stroke="#51BF47" stroke-width="8" stroke-linecap="square"/>
<path d="M79.2136 16.1816L96.1846 53.2517C99.9232 61.4181 97.3155 71.0892 89.9782 76.269C83.525 80.8248 74.9025 80.8248 68.4493 76.2691C61.1119 71.0892 58.5041 61.418 62.2427 53.2515L79.2136 16.1816Z" fill="#525252"/>
<path d="M79.5624 42.9091L87.261 56.0134C89.6623 60.1007 88.6041 65.3223 84.8077 68.1192L84.6593 68.2286C81.6049 70.4788 77.453 70.5544 74.2928 68.4174C70.331 65.7383 69.1338 60.4444 71.5652 56.3562L79.5624 42.9091Z" fill="white"/>
<path d="M58.081 4.41322L65.7796 17.5175C68.1809 21.6048 67.1226 26.8265 63.3263 29.6234L63.1779 29.7327C60.1235 31.9829 55.9716 32.0585 52.8114 29.9215C48.8496 27.2425 47.6524 21.9486 50.0838 17.8603L58.081 4.41322Z" fill="#525252"/>
<path d="M54.6602 139.1H210.342V151.205C210.342 156.728 205.865 161.205 200.342 161.205H64.6601C59.1373 161.205 54.6602 156.728 54.6602 151.205V139.1Z" fill="#51BF47"/>
<path d="M54.6602 139.099C54.6602 134.493 58.3937 130.76 62.9993 130.76H202.003C206.609 130.76 210.342 134.493 210.342 139.099H54.6602Z" fill="#525252"/>
<rect x="55.0273" y="118.897" width="155.313" height="7.96734" rx="3.98367" fill="#525252"/>
</svg>
