<svg width="80" height="68" viewBox="0 0 80 68" fill="none" xmlns="http://www.w3.org/2000/svg">
<path d="M47.2555 7.46973C47.2555 3.60374 50.3895 0.469727 54.2555 0.469727H72.4105C76.2765 0.469727 79.4105 3.60373 79.4105 7.46973V23.7661C79.4105 27.6321 76.2765 30.7661 72.4105 30.7661H54.2555C50.3895 30.7661 47.2555 27.6321 47.2555 23.7661V7.46973Z" fill="#51BF47"/>
<path d="M12.5772 32.99C14.5776 29.6818 18.9606 28.4823 22.3668 30.3108L37.5876 38.4813C40.9938 40.3097 42.1335 44.4738 40.1331 47.782L31.6778 61.765C29.6773 65.0732 25.2944 66.2728 21.8881 64.4443L6.66734 56.2738C3.26109 54.4453 2.12144 50.2812 4.12186 46.973L12.5772 32.99Z" fill="#51BF47"/>
<path d="M47.2555 43.2339C47.2555 39.3679 50.3895 36.2339 54.2555 36.2339H72.4105C76.2765 36.2339 79.4105 39.3679 79.4105 43.2339V59.5302C79.4105 63.3962 76.2765 66.5302 72.4105 66.5302H54.2555C50.3895 66.5302 47.2555 63.3962 47.2555 59.5302V43.2339Z" fill="#51BF47"/>
</svg>
