<svg width="266" height="165" viewBox="0 0 266 165" fill="none" xmlns="http://www.w3.org/2000/svg">
<rect x="50.1338" y="49.0327" width="126.699" height="120.058" rx="11" transform="rotate(-15 50.1338 49.0327)" fill="#525252"/>
<rect x="72.0723" y="30.5493" width="118.034" height="115.072" rx="11" transform="rotate(-15 72.0723 30.5493)" fill="#51BF47"/>
<path d="M163.278 20.0894L164.669 25.8987C167.01 35.6726 173.285 44.0448 182.01 49.0331C173.285 54.0215 167.01 62.3937 164.669 72.1676L163.278 77.9769L161.886 72.1676C159.546 62.3937 153.27 54.0215 144.545 49.0331C153.27 44.0448 159.546 35.6726 161.886 25.8987L163.278 20.0894Z" fill="white"/>
<path d="M135.46 61.936L135.961 63.5948C137.891 69.9812 142.484 75.2235 148.561 77.9768C142.484 80.73 137.891 85.9724 135.961 92.3587L135.46 94.0175L134.958 92.3587C133.028 85.9724 128.435 80.73 122.358 77.9768C128.435 75.2235 133.028 69.9812 134.958 63.5948L135.46 61.936Z" fill="white"/>
</svg>
