<svg width="266" height="165" viewBox="0 0 266 165" fill="none" xmlns="http://www.w3.org/2000/svg">
<path d="M112.074 60.2095L126.347 11.4316L163.46 5.3814L145.744 39.5346L168.425 35.8373L119.167 103.718L133.723 56.6802L112.074 60.2095Z" fill="#51BF47"/>
<path d="M71.5106 84.9212L68.0546 55.2836L87.6511 41.9302L85.6958 64.7961L97.6716 56.6356L85.8255 105.929L82.9421 77.1316L71.5106 84.9212Z" fill="#51BF47"/>
<path d="M159.582 79.0392L179.355 56.693L202.376 62.3833L184.037 76.1808L198.106 79.6583L153.482 103.718L173.011 82.3586L159.582 79.0392Z" fill="#51BF47"/>
<path d="M62.1387 138.089H203.861V150.194C203.861 155.717 199.383 160.194 193.861 160.194H72.1387C66.6158 160.194 62.1387 155.717 62.1387 150.194V138.089Z" fill="#51BF47"/>
<path d="M62.1387 138.088C62.1387 133.483 65.8722 129.749 70.4778 129.749H195.521C200.127 129.749 203.861 133.483 203.861 138.088H62.1387Z" fill="#525252"/>
<rect x="62.4746" y="117.887" width="141.386" height="7.96734" rx="3.98367" fill="#525252"/>
</svg>
