<svg width="266" height="167" viewBox="0 0 266 167" fill="none" xmlns="http://www.w3.org/2000/svg">
<path d="M180.921 111.72H65.1457V119.443C65.1457 124.965 69.6229 129.443 75.1457 129.443H170.921C176.444 129.443 180.921 124.965 180.921 119.443V111.72Z" fill="#51BF47"/>
<path d="M202.584 56.5715H86.791V47.5508C86.791 42.0279 91.2682 37.5508 96.791 37.5508H192.584C198.107 37.5508 202.584 42.0279 202.584 47.5508V56.5715Z" fill="#51BF47"/>
<path fill-rule="evenodd" clip-rule="evenodd" d="M192.647 66.4636L186.532 60.3655L180.418 66.4636L174.438 60.5003L168.459 66.4636L162.48 60.5008L156.501 66.4636L150.522 60.5008L144.543 66.4636L138.564 60.5006L132.584 66.4636L126.606 60.5012L120.627 66.4636L114.648 60.5006L108.669 66.4636L102.69 60.5008L96.711 66.4636L86.7916 56.571H98.7495H106.63H110.708H118.588H122.665H130.547H134.624H142.504H146.581H154.462H158.539H166.42H170.498H178.378H182.728H190.337H202.566L192.647 66.4636Z" fill="#525252"/>
<path fill-rule="evenodd" clip-rule="evenodd" d="M171.002 101.828L164.887 107.926L158.773 101.828L152.793 107.791L146.814 101.828L140.835 107.791L134.856 101.828L128.877 107.791L122.897 101.828L116.918 107.791L110.939 101.828L104.961 107.79L98.9823 101.828L93.0031 107.791L87.0239 101.828L81.0449 107.791L75.0659 101.828L65.1465 111.721H77.1045H84.9853H89.0629H96.9433H101.02H108.902H112.978H120.859H124.936H132.817H136.894H144.775H148.853H156.733H161.082H168.692H180.921L171.002 101.828Z" fill="#525252"/>
<path fill-rule="evenodd" clip-rule="evenodd" d="M176.423 117.297L170.309 111.982L164.195 117.297L158.215 112.099L152.235 117.297L146.257 112.1L140.278 117.297L134.299 112.099L128.32 117.297L122.341 112.099L116.362 117.297L110.383 112.099L104.404 117.297L98.4247 112.099L92.4457 117.297L86.4665 112.099L80.4872 117.297L70.5678 108.674H82.5263H90.4066H94.4843H102.365H106.442H114.323H118.401H126.281H130.359H138.239H142.316H150.197H154.276H162.155H174.114L172.64 109.956L180.938 111.689L176.423 117.297Z" fill="#525252"/>
<path d="M70.5689 117.297L65.0344 111.624L80.4883 108.674L70.5689 117.297Z" fill="#525252"/>
<path fill-rule="evenodd" clip-rule="evenodd" d="M185.842 51.3379L179.863 56.4249L173.883 51.3379L167.904 56.4247L161.925 51.3379L155.946 56.4241L149.968 51.3379L143.989 56.4241L138.011 51.3379L132.032 56.4247L126.052 51.3379L120.073 56.4249L114.093 51.3379L108.114 56.4249L102.135 51.3379L92.2152 59.7768H104.174H112.054H116.133H124.013H128.091H135.972H140.049H147.93H152.006H159.887H163.964H171.844H175.923H183.803H188.424L188.024 60.1172L189.469 59.7768H195.762L194.398 58.6166L202.606 56.6843L197.943 51.6782L192.093 56.6554L185.842 51.3379Z" fill="#525252"/>
<path d="M92.232 51.3379L86.7912 56.7407L102.151 59.7768L92.232 51.3379Z" fill="#525252"/>
<path d="M72.4883 35.9963L58.1563 21.3248L72.459 6.68316" stroke="#525252" stroke-width="8" stroke-linecap="square"/>
<path d="M133 21.3396L65.1456 21.3396" stroke="#525252" stroke-width="8" stroke-linecap="square"/>
<path d="M193.512 160.317L207.844 145.646L193.541 131.004" stroke="#525252" stroke-width="8" stroke-linecap="square"/>
<path d="M133 145.661H200.854" stroke="#525252" stroke-width="8" stroke-linecap="square"/>
<rect x="65.0342" y="94.373" width="115.904" height="6.45459" rx="3.22729" fill="#525252"/>
<rect x="86.6621" y="67.4636" width="115.904" height="6.45459" rx="3.22729" fill="#525252"/>
</svg>
