<svg width="604" height="255" viewBox="0 0 604 255" fill="none" xmlns="http://www.w3.org/2000/svg">
<path d="M252.665 22.4876H250.766C250.562 22.4876 250.391 22.4336 250.253 22.3256C250.115 22.2176 249.986 22.0586 249.866 21.8486L246.797 17.3215C246.719 17.2015 246.641 17.1026 246.563 17.0245C246.485 16.9405 246.398 16.8745 246.302 16.8266C246.206 16.7725 246.098 16.7366 245.978 16.7186C245.858 16.6946 245.723 16.6825 245.573 16.6825H244.079V22.4876H241.973V9.52755H244.079V15.0715H245.348C245.612 15.0715 245.834 15.0295 246.014 14.9455C246.194 14.8615 246.371 14.6996 246.545 14.4596L249.65 10.1035C249.752 9.93555 249.875 9.79755 250.019 9.68955C250.169 9.58155 250.346 9.52755 250.55 9.52755H252.332L248.624 14.7835C248.474 15.0055 248.303 15.1886 248.111 15.3326C247.919 15.4766 247.706 15.5905 247.472 15.6745C247.808 15.7645 248.093 15.9116 248.327 16.1156C248.567 16.3196 248.792 16.6016 249.002 16.9616L252.665 22.4876Z" fill="black"/>
<path d="M258.682 18.4736C257.992 18.4976 257.41 18.5546 256.936 18.6446C256.462 18.7286 256.078 18.8396 255.784 18.9776C255.49 19.1096 255.277 19.2685 255.145 19.4545C255.019 19.6405 254.956 19.8445 254.956 20.0665C254.956 20.2825 254.989 20.4685 255.055 20.6245C255.127 20.7745 255.223 20.9006 255.343 21.0026C255.469 21.0986 255.613 21.1706 255.775 21.2186C255.943 21.2606 256.126 21.2816 256.324 21.2816C256.828 21.2816 257.26 21.1886 257.62 21.0026C257.986 20.8106 258.34 20.5346 258.682 20.1746V18.4736ZM253.552 14.5855C254.59 13.6195 255.826 13.1366 257.26 13.1366C257.788 13.1366 258.256 13.2235 258.664 13.3976C259.078 13.5655 259.423 13.8055 259.699 14.1175C259.981 14.4295 260.194 14.8015 260.338 15.2335C260.488 15.6595 260.563 16.1336 260.563 16.6556V22.4876H259.699C259.513 22.4876 259.372 22.4606 259.276 22.4066C259.18 22.3466 259.099 22.2296 259.033 22.0556L258.844 21.3085C258.61 21.5185 258.379 21.7076 258.151 21.8756C257.923 22.0376 257.686 22.1756 257.44 22.2896C257.2 22.4036 256.939 22.4876 256.657 22.5416C256.381 22.6016 256.075 22.6315 255.739 22.6315C255.367 22.6315 255.019 22.5805 254.695 22.4785C254.377 22.3765 254.101 22.2236 253.867 22.0196C253.633 21.8096 253.447 21.5516 253.309 21.2456C253.177 20.9396 253.111 20.5796 253.111 20.1656C253.111 19.8116 253.204 19.4666 253.39 19.1306C253.582 18.7946 253.894 18.4946 254.326 18.2306C254.764 17.9606 255.337 17.7386 256.045 17.5646C256.759 17.3906 257.638 17.2916 258.682 17.2675V16.6556C258.682 15.9956 258.541 15.5035 258.259 15.1795C257.977 14.8555 257.563 14.6935 257.017 14.6935C256.645 14.6935 256.333 14.7415 256.081 14.8375C255.829 14.9275 255.61 15.0265 255.424 15.1345C255.238 15.2425 255.073 15.3445 254.929 15.4405C254.785 15.5305 254.632 15.5756 254.47 15.5756C254.338 15.5756 254.224 15.5425 254.128 15.4765C254.038 15.4045 253.963 15.3176 253.903 15.2155L253.552 14.5855Z" fill="black"/>
<path d="M273.27 13.2806V22.4876H271.533V16.9345C271.533 16.7425 271.545 16.5265 271.569 16.2866C271.593 16.0405 271.623 15.8126 271.659 15.6026L268.734 20.8586C268.674 20.9666 268.596 21.0536 268.5 21.1196C268.404 21.1796 268.296 21.2096 268.176 21.2096H267.969C267.849 21.2096 267.741 21.1796 267.645 21.1196C267.555 21.0536 267.48 20.9666 267.42 20.8586L264.441 15.5756C264.477 15.7856 264.507 16.0165 264.531 16.2685C264.561 16.5145 264.576 16.7365 264.576 16.9345V22.4876H262.83V13.2806H264.414C264.546 13.2806 264.675 13.3105 264.801 13.3705C264.933 13.4305 265.047 13.5475 265.143 13.7215L267.636 17.9876C267.72 18.1436 267.795 18.3116 267.861 18.4916C267.933 18.6716 268.002 18.8515 268.068 19.0315C268.134 18.8515 268.203 18.6716 268.275 18.4916C268.347 18.3116 268.425 18.1436 268.509 17.9876L270.966 13.7215C271.056 13.5415 271.167 13.4245 271.299 13.3705C271.431 13.3105 271.563 13.2806 271.695 13.2806H273.27Z" fill="black"/>
<path d="M281.665 16.8626C281.665 16.5386 281.617 16.2385 281.521 15.9625C281.431 15.6805 281.296 15.4375 281.116 15.2335C280.936 15.0235 280.711 14.8616 280.441 14.7476C280.177 14.6276 279.871 14.5676 279.523 14.5676C278.821 14.5676 278.269 14.7685 277.867 15.1705C277.465 15.5725 277.21 16.1365 277.102 16.8626H281.665ZM277.048 18.0506C277.072 18.5726 277.153 19.0255 277.291 19.4095C277.429 19.7875 277.612 20.1025 277.84 20.3545C278.074 20.6065 278.35 20.7956 278.668 20.9216C278.992 21.0416 279.352 21.1016 279.748 21.1016C280.126 21.1016 280.453 21.0595 280.729 20.9755C281.005 20.8855 281.245 20.7896 281.449 20.6876C281.653 20.5796 281.827 20.4835 281.971 20.3995C282.115 20.3095 282.247 20.2645 282.367 20.2645C282.523 20.2645 282.643 20.3245 282.727 20.4445L283.276 21.1556C283.048 21.4255 282.79 21.6535 282.502 21.8396C282.214 22.0256 281.908 22.1786 281.584 22.2986C281.26 22.4126 280.927 22.4936 280.585 22.5416C280.243 22.5956 279.91 22.6226 279.586 22.6226C278.95 22.6226 278.359 22.5176 277.813 22.3076C277.273 22.0916 276.802 21.7766 276.4 21.3626C276.004 20.9486 275.692 20.4356 275.464 19.8236C275.242 19.2116 275.131 18.5065 275.131 17.7085C275.131 17.0725 275.23 16.4786 275.428 15.9266C275.632 15.3746 275.92 14.8945 276.292 14.4865C276.67 14.0786 277.126 13.7575 277.66 13.5235C278.2 13.2835 278.809 13.1635 279.487 13.1635C280.051 13.1635 280.573 13.2566 281.053 13.4426C281.533 13.6226 281.947 13.8896 282.295 14.2435C282.643 14.5975 282.913 15.0325 283.105 15.5486C283.303 16.0586 283.402 16.6406 283.402 17.2946C283.402 17.5946 283.369 17.7956 283.303 17.8976C283.237 17.9996 283.117 18.0506 282.943 18.0506H277.048Z" fill="black"/>
<path d="M287.142 20.1835C287.412 20.5315 287.706 20.7776 288.024 20.9216C288.348 21.0596 288.705 21.1286 289.095 21.1286C289.851 21.1286 290.439 20.8526 290.859 20.3006C291.285 19.7486 291.498 18.9266 291.498 17.8346C291.498 17.2706 291.45 16.7906 291.354 16.3945C291.258 15.9926 291.12 15.6655 290.94 15.4135C290.76 15.1615 290.541 14.9786 290.283 14.8646C290.025 14.7506 289.734 14.6935 289.41 14.6935C288.918 14.6935 288.492 14.8015 288.132 15.0175C287.778 15.2276 287.448 15.5306 287.142 15.9266V20.1835ZM287.043 14.6395C287.427 14.1895 287.862 13.8266 288.348 13.5505C288.84 13.2745 289.41 13.1366 290.058 13.1366C290.574 13.1366 291.042 13.2416 291.462 13.4516C291.882 13.6556 292.242 13.9555 292.542 14.3515C292.842 14.7475 293.073 15.2396 293.235 15.8276C293.403 16.4096 293.487 17.0786 293.487 17.8346C293.487 18.5126 293.394 19.1455 293.208 19.7335C293.028 20.3155 292.767 20.8226 292.425 21.2546C292.083 21.6806 291.669 22.0166 291.183 22.2626C290.697 22.5026 290.148 22.6226 289.536 22.6226C288.996 22.6226 288.537 22.5356 288.159 22.3616C287.787 22.1876 287.448 21.9476 287.142 21.6416V25.5386H285.207V13.3075H286.377C286.641 13.3075 286.809 13.4305 286.881 13.6766L287.043 14.6395Z" fill="black"/>
<path d="M300.272 18.4736C299.582 18.4976 299 18.5546 298.526 18.6446C298.052 18.7286 297.668 18.8396 297.374 18.9776C297.08 19.1096 296.867 19.2685 296.735 19.4545C296.609 19.6405 296.546 19.8445 296.546 20.0665C296.546 20.2825 296.579 20.4685 296.645 20.6245C296.717 20.7745 296.813 20.9006 296.933 21.0026C297.059 21.0986 297.203 21.1706 297.365 21.2186C297.533 21.2606 297.716 21.2816 297.914 21.2816C298.418 21.2816 298.85 21.1886 299.21 21.0026C299.576 20.8106 299.93 20.5346 300.272 20.1746V18.4736ZM295.142 14.5855C296.18 13.6195 297.416 13.1366 298.85 13.1366C299.378 13.1366 299.846 13.2235 300.254 13.3976C300.668 13.5655 301.013 13.8055 301.289 14.1175C301.571 14.4295 301.784 14.8015 301.928 15.2335C302.078 15.6595 302.153 16.1336 302.153 16.6556V22.4876H301.289C301.103 22.4876 300.962 22.4606 300.866 22.4066C300.77 22.3466 300.689 22.2296 300.623 22.0556L300.434 21.3085C300.2 21.5185 299.969 21.7076 299.741 21.8756C299.513 22.0376 299.276 22.1756 299.03 22.2896C298.79 22.4036 298.529 22.4876 298.247 22.5416C297.971 22.6016 297.665 22.6315 297.329 22.6315C296.957 22.6315 296.609 22.5805 296.285 22.4785C295.967 22.3765 295.691 22.2236 295.457 22.0196C295.223 21.8096 295.037 21.5516 294.899 21.2456C294.767 20.9396 294.701 20.5796 294.701 20.1656C294.701 19.8116 294.794 19.4666 294.98 19.1306C295.172 18.7946 295.484 18.4946 295.916 18.2306C296.354 17.9606 296.927 17.7386 297.635 17.5646C298.349 17.3906 299.228 17.2916 300.272 17.2675V16.6556C300.272 15.9956 300.131 15.5035 299.849 15.1795C299.567 14.8555 299.153 14.6935 298.607 14.6935C298.235 14.6935 297.923 14.7415 297.671 14.8375C297.419 14.9275 297.2 15.0265 297.014 15.1345C296.828 15.2425 296.663 15.3445 296.519 15.4405C296.375 15.5305 296.222 15.5756 296.06 15.5756C295.928 15.5756 295.814 15.5425 295.718 15.4765C295.628 15.4045 295.553 15.3176 295.493 15.2155L295.142 14.5855Z" fill="black"/>
<path d="M312.871 13.1635C313.549 13.1635 314.161 13.2745 314.707 13.4965C315.259 13.7185 315.727 14.0335 316.111 14.4415C316.501 14.8495 316.801 15.3446 317.011 15.9266C317.221 16.5086 317.326 17.1625 317.326 17.8885C317.326 18.6145 317.221 19.2685 317.011 19.8505C316.801 20.4325 316.501 20.9306 316.111 21.3446C315.727 21.7526 315.259 22.0676 314.707 22.2896C314.161 22.5116 313.549 22.6226 312.871 22.6226C312.187 22.6226 311.569 22.5116 311.017 22.2896C310.471 22.0676 310.003 21.7526 309.613 21.3446C309.223 20.9306 308.923 20.4325 308.713 19.8505C308.503 19.2685 308.398 18.6145 308.398 17.8885C308.398 17.1625 308.503 16.5086 308.713 15.9266C308.923 15.3446 309.223 14.8495 309.613 14.4415C310.003 14.0335 310.471 13.7185 311.017 13.4965C311.569 13.2745 312.187 13.1635 312.871 13.1635ZM312.871 21.1105C313.699 21.1105 314.314 20.8346 314.716 20.2826C315.124 19.7246 315.328 18.9296 315.328 17.8976C315.328 16.8656 315.124 16.0705 314.716 15.5125C314.314 14.9485 313.699 14.6666 312.871 14.6666C312.031 14.6666 311.407 14.9485 310.999 15.5125C310.591 16.0705 310.387 16.8656 310.387 17.8976C310.387 18.9296 310.591 19.7246 310.999 20.2826C311.407 20.8346 312.031 21.1105 312.871 21.1105Z" fill="black"/>
<path d="M326.648 22.4876H324.794C324.644 22.4876 324.524 22.4486 324.434 22.3706C324.35 22.2926 324.281 22.2056 324.227 22.1096L322.112 18.7166C322.058 18.9206 321.986 19.0976 321.896 19.2476L319.979 22.1096C319.913 22.2056 319.838 22.2926 319.754 22.3706C319.676 22.4486 319.571 22.4876 319.439 22.4876H317.711L320.888 17.7535L317.837 13.3075H319.691C319.841 13.3075 319.949 13.3315 320.015 13.3795C320.087 13.4216 320.15 13.4875 320.204 13.5775L322.283 16.8176C322.337 16.6196 322.421 16.4305 322.535 16.2505L324.29 13.6135C324.41 13.4095 324.563 13.3075 324.749 13.3075H326.522L323.471 17.6726L326.648 22.4876Z" fill="black"/>
<path d="M336.255 22.4876H334.32V14.8106H331.764C331.692 15.9566 331.581 16.9465 331.431 17.7806C331.287 18.6085 331.113 19.3106 330.909 19.8866C330.705 20.4626 330.477 20.9306 330.225 21.2906C329.973 21.6446 329.706 21.9206 329.424 22.1186C329.142 22.3166 328.851 22.4486 328.551 22.5146C328.257 22.5806 327.96 22.6136 327.66 22.6136C327.078 22.6136 326.787 22.5176 326.787 22.3256V21.1105H327.291C327.489 21.1105 327.69 21.0776 327.894 21.0116C328.104 20.9456 328.305 20.8165 328.497 20.6245C328.689 20.4265 328.872 20.1506 329.046 19.7966C329.226 19.4426 329.388 18.9776 329.532 18.4016C329.682 17.8196 329.811 17.1146 329.919 16.2866C330.027 15.4525 330.111 14.4595 330.171 13.3075H336.255V22.4876Z" fill="black"/>
<path d="M343.514 18.4736C342.824 18.4976 342.242 18.5546 341.768 18.6446C341.294 18.7286 340.91 18.8396 340.616 18.9776C340.322 19.1096 340.109 19.2685 339.977 19.4545C339.851 19.6405 339.788 19.8445 339.788 20.0665C339.788 20.2825 339.821 20.4685 339.887 20.6245C339.959 20.7745 340.055 20.9006 340.175 21.0026C340.301 21.0986 340.445 21.1706 340.607 21.2186C340.775 21.2606 340.958 21.2816 341.156 21.2816C341.66 21.2816 342.092 21.1886 342.452 21.0026C342.818 20.8106 343.172 20.5346 343.514 20.1746V18.4736ZM338.384 14.5855C339.422 13.6195 340.658 13.1366 342.092 13.1366C342.62 13.1366 343.088 13.2235 343.496 13.3976C343.91 13.5655 344.255 13.8055 344.531 14.1175C344.813 14.4295 345.026 14.8015 345.17 15.2335C345.32 15.6595 345.395 16.1336 345.395 16.6556V22.4876H344.531C344.345 22.4876 344.204 22.4606 344.108 22.4066C344.012 22.3466 343.931 22.2296 343.865 22.0556L343.676 21.3085C343.442 21.5185 343.211 21.7076 342.983 21.8756C342.755 22.0376 342.518 22.1756 342.272 22.2896C342.032 22.4036 341.771 22.4876 341.489 22.5416C341.213 22.6016 340.907 22.6315 340.571 22.6315C340.199 22.6315 339.851 22.5805 339.527 22.4785C339.209 22.3765 338.933 22.2236 338.699 22.0196C338.465 21.8096 338.279 21.5516 338.141 21.2456C338.009 20.9396 337.943 20.5796 337.943 20.1656C337.943 19.8116 338.036 19.4666 338.222 19.1306C338.414 18.7946 338.726 18.4946 339.158 18.2306C339.596 17.9606 340.169 17.7386 340.877 17.5646C341.591 17.3906 342.47 17.2916 343.514 17.2675V16.6556C343.514 15.9956 343.373 15.5035 343.091 15.1795C342.809 14.8555 342.395 14.6935 341.849 14.6935C341.477 14.6935 341.165 14.7415 340.913 14.8375C340.661 14.9275 340.442 15.0265 340.256 15.1345C340.07 15.2425 339.905 15.3445 339.761 15.4405C339.617 15.5305 339.464 15.5756 339.302 15.5756C339.17 15.5756 339.056 15.5425 338.96 15.4765C338.87 15.4045 338.795 15.3176 338.735 15.2155L338.384 14.5855Z" fill="black"/>
<path d="M360.757 22.4876H359.425C359.083 22.4876 358.819 22.4336 358.633 22.3256C358.453 22.2176 358.312 22.0466 358.21 21.8126L356.653 19.1306C356.527 18.9026 356.362 18.7346 356.158 18.6266C355.954 18.5186 355.723 18.4646 355.465 18.4646H354.646V22.4966H352.774V18.4646H351.964C351.7 18.4646 351.466 18.5186 351.262 18.6266C351.064 18.7346 350.899 18.9026 350.767 19.1306L349.21 21.8126C349.108 22.0466 348.964 22.2176 348.778 22.3256C348.598 22.4336 348.337 22.4876 347.995 22.4876H346.663L348.931 18.6985C349.087 18.4285 349.261 18.2095 349.453 18.0415C349.651 17.8675 349.897 17.7386 350.191 17.6546C349.969 17.5706 349.777 17.4566 349.615 17.3126C349.459 17.1686 349.309 16.9826 349.165 16.7546L346.906 13.3075H348.427C348.607 13.3075 348.772 13.3555 348.922 13.4516C349.072 13.5476 349.189 13.6735 349.273 13.8295L351.019 16.5835C351.139 16.7815 351.283 16.9286 351.451 17.0245C351.619 17.1206 351.829 17.1686 352.081 17.1686H352.774V13.2986H354.646V17.1686H355.312C355.81 17.1686 356.173 16.9735 356.401 16.5835L358.147 13.8295C358.231 13.6735 358.348 13.5476 358.498 13.4516C358.654 13.3555 358.822 13.3075 359.002 13.3075H360.514L358.255 16.7546C358.111 16.9826 357.961 17.1686 357.805 17.3126C357.649 17.4566 357.46 17.5706 357.238 17.6546C357.532 17.7386 357.775 17.8675 357.967 18.0415C358.159 18.2095 358.333 18.4285 358.489 18.6985L360.757 22.4876Z" fill="black"/>
<path d="M368.348 21.0926V14.8106H365.774C365.72 15.6506 365.642 16.4036 365.54 17.0696C365.444 17.7356 365.33 18.3266 365.198 18.8426C365.072 19.3526 364.931 19.7936 364.775 20.1656C364.619 20.5316 364.457 20.8406 364.289 21.0926H368.348ZM371.903 21.0296V25.0166C371.903 25.1966 371.849 25.3376 371.741 25.4396C371.639 25.5476 371.507 25.6016 371.345 25.6016H370.148V22.4876H362.885V25.0526C362.885 25.1906 362.84 25.3166 362.75 25.4306C362.666 25.5446 362.534 25.6016 362.354 25.6016H361.13V21.0926H361.409C361.619 21.0926 361.826 21.0626 362.03 21.0026C362.234 20.9366 362.429 20.8076 362.615 20.6156C362.801 20.4236 362.978 20.1535 363.146 19.8055C363.314 19.4515 363.464 18.9866 363.596 18.4106C363.734 17.8346 363.854 17.1295 363.956 16.2955C364.058 15.4615 364.139 14.4655 364.199 13.3075H370.22V21.0296H371.903Z" fill="black"/>
<path d="M379.277 16.8626C379.277 16.5386 379.229 16.2385 379.133 15.9625C379.043 15.6805 378.908 15.4375 378.728 15.2335C378.548 15.0235 378.323 14.8616 378.053 14.7476C377.789 14.6276 377.483 14.5676 377.135 14.5676C376.433 14.5676 375.881 14.7685 375.479 15.1705C375.077 15.5725 374.822 16.1365 374.714 16.8626H379.277ZM374.66 18.0506C374.684 18.5726 374.765 19.0255 374.903 19.4095C375.041 19.7875 375.224 20.1025 375.452 20.3545C375.686 20.6065 375.962 20.7956 376.28 20.9216C376.604 21.0416 376.964 21.1016 377.36 21.1016C377.738 21.1016 378.065 21.0595 378.341 20.9755C378.617 20.8855 378.857 20.7896 379.061 20.6876C379.265 20.5796 379.439 20.4835 379.583 20.3995C379.727 20.3095 379.859 20.2645 379.979 20.2645C380.135 20.2645 380.255 20.3245 380.339 20.4445L380.888 21.1556C380.66 21.4255 380.402 21.6535 380.114 21.8396C379.826 22.0256 379.52 22.1786 379.196 22.2986C378.872 22.4126 378.539 22.4936 378.197 22.5416C377.855 22.5956 377.522 22.6226 377.198 22.6226C376.562 22.6226 375.971 22.5176 375.425 22.3076C374.885 22.0916 374.414 21.7766 374.012 21.3626C373.616 20.9486 373.304 20.4356 373.076 19.8236C372.854 19.2116 372.743 18.5065 372.743 17.7085C372.743 17.0725 372.842 16.4786 373.04 15.9266C373.244 15.3746 373.532 14.8945 373.904 14.4865C374.282 14.0786 374.738 13.7575 375.272 13.5235C375.812 13.2835 376.421 13.1635 377.099 13.1635C377.663 13.1635 378.185 13.2566 378.665 13.4426C379.145 13.6226 379.559 13.8896 379.907 14.2435C380.255 14.5975 380.525 15.0325 380.717 15.5486C380.915 16.0586 381.014 16.6406 381.014 17.2946C381.014 17.5946 380.981 17.7956 380.915 17.8976C380.849 17.9996 380.729 18.0506 380.555 18.0506H374.66Z" fill="black"/>
<path d="M390.648 13.3075V22.4876H388.722V18.3206H384.753V22.4876H382.818V13.3075H384.753V16.8626H388.722V13.3075H390.648Z" fill="black"/>
<path d="M401.087 13.3075V22.4876H399.152V16.7365C399.152 16.6106 399.158 16.4725 399.17 16.3225C399.182 16.1725 399.2 16.0195 399.224 15.8635C399.164 15.9955 399.104 16.1186 399.044 16.2326C398.99 16.3406 398.93 16.4396 398.864 16.5296L394.877 22.0106C394.805 22.1246 394.709 22.2356 394.589 22.3436C394.469 22.4456 394.334 22.4966 394.184 22.4966H393.014V13.3075H394.949V19.0585C394.949 19.1845 394.94 19.3256 394.922 19.4816C394.91 19.6376 394.892 19.7936 394.868 19.9496C394.988 19.6736 395.111 19.4456 395.237 19.2656L399.224 13.7936C399.296 13.6735 399.392 13.5625 399.512 13.4605C399.632 13.3585 399.767 13.3075 399.917 13.3075H401.087Z" fill="black"/>
<path d="M408.243 17.5016V14.5855H406.884C406.572 14.5855 406.311 14.6306 406.101 14.7206C405.891 14.8105 405.723 14.9275 405.597 15.0715C405.471 15.2095 405.381 15.3656 405.327 15.5396C405.273 15.7136 405.246 15.8845 405.246 16.0525C405.246 16.5025 405.405 16.8565 405.723 17.1146C406.047 17.3726 406.482 17.5016 407.028 17.5016H408.243ZM410.088 13.3075V22.4876H408.243V18.7255H407.712C407.538 18.7255 407.394 18.7405 407.28 18.7705C407.166 18.8005 407.067 18.8425 406.983 18.8965C406.905 18.9505 406.833 19.0166 406.767 19.0946C406.707 19.1726 406.647 19.2596 406.587 19.3556L404.868 21.8126C404.742 22.0406 404.592 22.2116 404.418 22.3256C404.25 22.4336 403.995 22.4876 403.653 22.4876H402.321L404.796 19.1486C405.024 18.7526 405.342 18.4826 405.75 18.3386C405.306 18.2726 404.928 18.1585 404.616 17.9965C404.304 17.8345 404.052 17.6455 403.86 17.4295C403.668 17.2135 403.527 16.9796 403.437 16.7276C403.353 16.4696 403.311 16.2145 403.311 15.9625C403.311 15.6325 403.374 15.3085 403.5 14.9905C403.632 14.6725 403.839 14.3905 404.121 14.1445C404.403 13.8925 404.766 13.6916 405.21 13.5416C405.66 13.3855 406.2 13.3075 406.83 13.3075H410.088Z" fill="black"/>
<path d="M470.069 225.243V238.203H467.963V229.599C467.963 229.311 467.969 229.011 467.981 228.699C467.999 228.387 468.032 228.051 468.08 227.691C467.966 228.003 467.843 228.294 467.711 228.564C467.585 228.828 467.459 229.062 467.333 229.266L461.843 237.546C461.795 237.624 461.738 237.702 461.672 237.78C461.612 237.858 461.54 237.93 461.456 237.996C461.378 238.056 461.294 238.107 461.204 238.149C461.114 238.185 461.018 238.203 460.916 238.203H459.341V225.243H461.456V233.838C461.456 234.126 461.447 234.429 461.429 234.747C461.417 235.059 461.387 235.389 461.339 235.737C461.453 235.431 461.573 235.146 461.699 234.882C461.831 234.612 461.957 234.378 462.077 234.18L467.567 225.9C467.615 225.822 467.669 225.744 467.729 225.666C467.795 225.588 467.867 225.519 467.945 225.459C468.029 225.393 468.116 225.342 468.206 225.306C468.296 225.264 468.392 225.243 468.494 225.243H470.069Z" fill="black"/>
<path d="M472.011 229.995C472.359 229.665 472.785 229.398 473.289 229.194C473.793 228.984 474.396 228.879 475.098 228.879C475.662 228.879 476.16 228.948 476.592 229.086C477.024 229.218 477.387 229.398 477.681 229.626C477.975 229.848 478.197 230.106 478.347 230.4C478.503 230.694 478.581 231 478.581 231.318C478.581 231.498 478.554 231.684 478.5 231.876C478.446 232.062 478.356 232.245 478.23 232.425C478.11 232.605 477.948 232.773 477.744 232.929C477.546 233.085 477.3 233.214 477.006 233.316C477.552 233.496 477.984 233.775 478.302 234.153C478.62 234.525 478.779 234.99 478.779 235.548C478.779 235.986 478.677 236.379 478.473 236.727C478.275 237.069 478.008 237.36 477.672 237.6C477.342 237.84 476.958 238.023 476.52 238.149C476.088 238.275 475.638 238.338 475.17 238.338C474.888 238.338 474.594 238.311 474.288 238.257C473.988 238.209 473.688 238.128 473.388 238.014C473.094 237.894 472.809 237.741 472.533 237.555C472.257 237.369 472.008 237.141 471.786 236.871L472.344 236.16C472.416 236.04 472.536 235.98 472.704 235.98C472.824 235.98 472.947 236.025 473.073 236.115C473.199 236.205 473.346 236.304 473.514 236.412C473.688 236.52 473.895 236.619 474.135 236.709C474.381 236.799 474.684 236.844 475.044 236.844C475.344 236.844 475.611 236.808 475.845 236.736C476.079 236.664 476.277 236.562 476.439 236.43C476.601 236.298 476.724 236.145 476.808 235.971C476.892 235.791 476.934 235.596 476.934 235.386C476.934 234.978 476.766 234.657 476.43 234.423C476.1 234.183 475.578 234.063 474.864 234.063H473.829V232.785H474.864C475.488 232.785 475.971 232.671 476.313 232.443C476.655 232.215 476.826 231.918 476.826 231.552C476.826 231.222 476.676 230.943 476.376 230.715C476.082 230.487 475.638 230.373 475.044 230.373C474.708 230.373 474.42 230.409 474.18 230.481C473.946 230.547 473.748 230.622 473.586 230.706C473.424 230.784 473.286 230.856 473.172 230.922C473.064 230.988 472.968 231.021 472.884 231.021C472.794 231.021 472.716 231.003 472.65 230.967C472.59 230.931 472.524 230.856 472.452 230.742L472.011 229.995Z" fill="black"/>
<path d="M486.821 236.808V230.526H484.247C484.193 231.366 484.115 232.119 484.013 232.785C483.917 233.451 483.803 234.042 483.671 234.558C483.545 235.068 483.404 235.509 483.248 235.881C483.092 236.247 482.93 236.556 482.762 236.808H486.821ZM490.376 236.745V240.732C490.376 240.912 490.322 241.053 490.214 241.155C490.112 241.263 489.98 241.317 489.818 241.317H488.621V238.203H481.358V240.768C481.358 240.906 481.313 241.032 481.223 241.146C481.139 241.26 481.007 241.317 480.827 241.317H479.603V236.808H479.882C480.092 236.808 480.299 236.778 480.503 236.718C480.707 236.652 480.902 236.523 481.088 236.331C481.274 236.139 481.451 235.869 481.619 235.521C481.787 235.167 481.937 234.702 482.069 234.126C482.207 233.55 482.327 232.845 482.429 232.011C482.531 231.177 482.612 230.181 482.672 229.023H488.693V236.745H490.376Z" fill="black"/>
<path d="M497.75 232.578C497.75 232.254 497.702 231.954 497.606 231.678C497.516 231.396 497.381 231.153 497.201 230.949C497.021 230.739 496.796 230.577 496.526 230.463C496.262 230.343 495.956 230.283 495.608 230.283C494.906 230.283 494.354 230.484 493.952 230.886C493.55 231.288 493.295 231.852 493.187 232.578H497.75ZM493.133 233.766C493.157 234.288 493.238 234.741 493.376 235.125C493.514 235.503 493.697 235.818 493.925 236.07C494.159 236.322 494.435 236.511 494.753 236.637C495.077 236.757 495.437 236.817 495.833 236.817C496.211 236.817 496.538 236.775 496.814 236.691C497.09 236.601 497.33 236.505 497.534 236.403C497.738 236.295 497.912 236.199 498.056 236.115C498.2 236.025 498.332 235.98 498.452 235.98C498.608 235.98 498.728 236.04 498.812 236.16L499.361 236.871C499.133 237.141 498.875 237.369 498.587 237.555C498.299 237.741 497.993 237.894 497.669 238.014C497.345 238.128 497.012 238.209 496.67 238.257C496.328 238.311 495.995 238.338 495.671 238.338C495.035 238.338 494.444 238.233 493.898 238.023C493.358 237.807 492.887 237.492 492.485 237.078C492.089 236.664 491.777 236.151 491.549 235.539C491.327 234.927 491.216 234.222 491.216 233.424C491.216 232.788 491.315 232.194 491.513 231.642C491.717 231.09 492.005 230.61 492.377 230.202C492.755 229.794 493.211 229.473 493.745 229.239C494.285 228.999 494.894 228.879 495.572 228.879C496.136 228.879 496.658 228.972 497.138 229.158C497.618 229.338 498.032 229.605 498.38 229.959C498.728 230.313 498.998 230.748 499.19 231.264C499.388 231.774 499.487 232.356 499.487 233.01C499.487 233.31 499.454 233.511 499.388 233.613C499.322 233.715 499.202 233.766 499.028 233.766H493.133Z" fill="black"/>
<path d="M509.589 238.203H507.654V230.526H505.098C505.026 231.672 504.915 232.662 504.765 233.496C504.621 234.324 504.447 235.026 504.243 235.602C504.039 236.178 503.811 236.646 503.559 237.006C503.307 237.36 503.04 237.636 502.758 237.834C502.476 238.032 502.185 238.164 501.885 238.23C501.591 238.296 501.294 238.329 500.994 238.329C500.412 238.329 500.121 238.233 500.121 238.041V236.826H500.625C500.823 236.826 501.024 236.793 501.228 236.727C501.438 236.661 501.639 236.532 501.831 236.34C502.023 236.142 502.206 235.866 502.38 235.512C502.56 235.158 502.722 234.693 502.866 234.117C503.016 233.535 503.145 232.83 503.253 232.002C503.361 231.168 503.445 230.175 503.505 229.023H509.589V238.203Z" fill="black"/>
<path d="M520.017 229.023V238.203H518.082V232.452C518.082 232.326 518.088 232.188 518.1 232.038C518.112 231.888 518.13 231.735 518.154 231.579C518.094 231.711 518.034 231.834 517.974 231.948C517.92 232.056 517.86 232.155 517.794 232.245L513.807 237.726C513.735 237.84 513.639 237.951 513.519 238.059C513.399 238.161 513.264 238.212 513.114 238.212H511.944V229.023H513.879V234.774C513.879 234.9 513.87 235.041 513.852 235.197C513.84 235.353 513.822 235.509 513.798 235.665C513.918 235.389 514.041 235.161 514.167 234.981L518.154 229.509C518.226 229.389 518.322 229.278 518.442 229.176C518.562 229.074 518.697 229.023 518.847 229.023H520.017Z" fill="black"/>
<path d="M528.388 232.578C528.388 232.254 528.34 231.954 528.244 231.678C528.154 231.396 528.019 231.153 527.839 230.949C527.659 230.739 527.434 230.577 527.164 230.463C526.9 230.343 526.594 230.283 526.246 230.283C525.544 230.283 524.992 230.484 524.59 230.886C524.188 231.288 523.933 231.852 523.825 232.578H528.388ZM523.771 233.766C523.795 234.288 523.876 234.741 524.014 235.125C524.152 235.503 524.335 235.818 524.563 236.07C524.797 236.322 525.073 236.511 525.391 236.637C525.715 236.757 526.075 236.817 526.471 236.817C526.849 236.817 527.176 236.775 527.452 236.691C527.728 236.601 527.968 236.505 528.172 236.403C528.376 236.295 528.55 236.199 528.694 236.115C528.838 236.025 528.97 235.98 529.09 235.98C529.246 235.98 529.366 236.04 529.45 236.16L529.999 236.871C529.771 237.141 529.513 237.369 529.225 237.555C528.937 237.741 528.631 237.894 528.307 238.014C527.983 238.128 527.65 238.209 527.308 238.257C526.966 238.311 526.633 238.338 526.309 238.338C525.673 238.338 525.082 238.233 524.536 238.023C523.996 237.807 523.525 237.492 523.123 237.078C522.727 236.664 522.415 236.151 522.187 235.539C521.965 234.927 521.854 234.222 521.854 233.424C521.854 232.788 521.953 232.194 522.151 231.642C522.355 231.09 522.643 230.61 523.015 230.202C523.393 229.794 523.849 229.473 524.383 229.239C524.923 228.999 525.532 228.879 526.21 228.879C526.774 228.879 527.296 228.972 527.776 229.158C528.256 229.338 528.67 229.605 529.018 229.959C529.366 230.313 529.636 230.748 529.828 231.264C530.026 231.774 530.125 232.356 530.125 233.01C530.125 233.31 530.092 233.511 530.026 233.613C529.96 233.715 529.84 233.766 529.666 233.766H523.771Z" fill="black"/>
<path d="M189.844 90.6811V80.6591C189.844 79.5545 190.739 78.6591 191.844 78.6591H247.522C247.74 78.6591 247.956 78.6946 248.162 78.7643L313.127 100.711C313.333 100.781 313.549 100.816 313.767 100.816H337.377C338.481 100.816 339.377 99.9206 339.377 98.816V63.7678C339.377 62.6633 340.272 61.7678 341.377 61.7678H347.043C348.148 61.7678 349.043 62.6633 349.043 63.7678V108.038C349.043 109.142 348.148 110.038 347.043 110.038H313.699C313.526 110.038 313.354 110.015 313.187 109.971L248.102 92.7477C247.935 92.7035 247.763 92.6811 247.591 92.6811H191.844C190.739 92.6811 189.844 91.7857 189.844 90.6811Z" fill="#E48947"/>
<path d="M189.844 167.639V177.661C189.844 178.766 190.739 179.661 191.844 179.661H247.522C247.74 179.661 247.956 179.625 248.162 179.556L313.127 157.609C313.333 157.54 313.549 157.504 313.767 157.504H337.377C338.481 157.504 339.377 158.399 339.377 159.504V194.552C339.377 195.657 340.272 196.552 341.377 196.552H347.043C348.148 196.552 349.043 195.657 349.043 194.552V150.283C349.043 149.178 348.148 148.283 347.043 148.283H313.699C313.526 148.283 313.354 148.305 313.187 148.349L248.102 165.572C247.935 165.617 247.763 165.639 247.591 165.639H191.844C190.739 165.639 189.844 166.534 189.844 167.639Z" fill="#E48947"/>
<path d="M284.604 137.945V119.881C284.604 119.329 285.053 118.881 285.606 118.881C404.133 118.786 517.844 101.917 552.764 86.8965C553.432 86.6088 554.137 87.1161 554.137 87.8441V168.497C554.137 169.23 553.425 169.74 552.753 169.446C519.946 155.065 403.425 139.036 285.605 138.946C285.053 138.945 284.604 138.498 284.604 137.945Z" fill="url(#paint0_linear_0_3)"/>
<path d="M114.997 57.5181C114.997 55.3089 116.788 53.5181 118.997 53.5181H345.043C347.252 53.5181 349.043 55.3089 349.043 57.5181V67.4644C349.043 69.6735 347.252 71.4644 345.043 71.4644H118.997C116.788 71.4644 114.997 69.6735 114.997 67.4644V57.5181Z" fill="#A9460E"/>
<path d="M114.997 190.709C114.997 188.5 116.788 186.709 118.997 186.709H345.043C347.252 186.709 349.043 188.5 349.043 190.709V201.819C349.043 204.028 347.252 205.819 345.043 205.819H118.997C116.788 205.819 114.997 204.028 114.997 201.819V190.709Z" fill="#A9460E"/>
<path d="M116.3 78.2647C116.3 76.7323 117.542 75.49 119.075 75.49H245.297C246.83 75.49 248.072 76.7323 248.072 78.2647C248.072 79.7972 246.83 81.0395 245.297 81.0395H119.075C117.542 81.0395 116.3 79.7972 116.3 78.2647Z" fill="#525252"/>
<path d="M116.3 78.2647C116.3 76.7323 117.542 75.49 119.075 75.49H245.297C246.83 75.49 248.072 76.7323 248.072 78.2647C248.072 79.7972 246.83 81.0395 245.297 81.0395H119.075C117.542 81.0395 116.3 79.7972 116.3 78.2647Z" fill="#525252"/>
<path d="M115.648 180.307C115.648 178.775 116.89 177.532 118.423 177.532H245.949C247.481 177.532 248.724 178.775 248.724 180.307C248.724 181.839 247.481 183.082 245.949 183.082H118.423C116.89 183.082 115.648 181.839 115.648 180.307Z" fill="#525252"/>
<path d="M115.648 180.307C115.648 178.775 116.89 177.532 118.423 177.532H245.949C247.481 177.532 248.724 178.775 248.724 180.307C248.724 181.839 247.481 183.082 245.949 183.082H118.423C116.89 183.082 115.648 181.839 115.648 180.307Z" fill="#525252"/>
<path d="M223.383 118.765C223.383 117.661 224.278 116.765 225.383 116.765H251.325C251.825 116.765 252.306 116.952 252.675 117.29L264.347 127.977C265.229 128.784 265.21 130.18 264.308 130.963L252.666 141.066C252.302 141.382 251.837 141.555 251.355 141.555H225.383C224.278 141.555 223.383 140.66 223.383 139.555V118.765Z" fill="#252525"/>
<path fill-rule="evenodd" clip-rule="evenodd" d="M127.085 116.94C127.085 114.731 128.876 112.94 131.085 112.94H221.383C224.697 112.94 227.383 115.626 227.383 118.94V140.228C227.383 143.542 224.697 146.228 221.383 146.228H131.085C128.876 146.228 127.085 144.437 127.085 142.228C127.085 140.019 128.876 138.228 131.085 138.228H219.383V120.94H131.085C128.876 120.94 127.085 119.149 127.085 116.94Z" fill="#252525"/>
<path d="M562.554 61.738C562.554 60.6335 563.449 59.738 564.554 59.738H575.631C576.736 59.738 577.631 60.6335 577.631 61.738V194.625C577.631 195.729 576.736 196.625 575.631 196.625H564.554C563.449 196.625 562.554 195.729 562.554 194.625V61.738Z" fill="#C5C5C5"/>
<path d="M577.631 2.52051C577.631 1.41594 578.527 0.520508 579.631 0.520508H601.513C602.617 0.520508 603.513 1.41594 603.513 2.52051V252.665C603.513 253.77 602.617 254.665 601.513 254.665H579.631C578.527 254.665 577.631 253.77 577.631 252.665V2.52051Z" fill="#525252"/>
<path d="M114.995 118.443C114.995 117.338 115.89 116.443 116.995 116.443H145.172C146.276 116.443 147.172 117.338 147.172 118.443V124.411C147.172 125.516 146.276 126.411 145.172 126.411H116.995C115.89 126.411 114.995 125.516 114.995 124.411V118.443Z" fill="#252525"/>
<path d="M114.995 134.757C114.995 133.652 115.89 132.757 116.995 132.757H145.172C146.276 132.757 147.172 133.652 147.172 134.757V140.725C147.172 141.83 146.276 142.725 145.172 142.725H116.995C115.89 142.725 114.995 141.83 114.995 140.725V134.757Z" fill="#252525"/>
<path fill-rule="evenodd" clip-rule="evenodd" d="M106.599 106.308L117.382 98.0845L106.616 89.8741L104.231 91.6934L112.611 98.0845L104.214 104.489L106.599 106.308Z" fill="#DA5757"/>
<path fill-rule="evenodd" clip-rule="evenodd" d="M81.1727 99.5911H112.401V96.5911H81.1727V99.5911Z" fill="#DA5757"/>
<path fill-rule="evenodd" clip-rule="evenodd" d="M106.599 170.288L117.382 162.064L106.616 153.854L104.231 155.673L112.611 162.064L104.214 168.469L106.599 170.288Z" fill="#DA5757"/>
<path fill-rule="evenodd" clip-rule="evenodd" d="M81.1727 163.571H112.401V160.571H81.1727V163.571Z" fill="#DA5757"/>
<path fill-rule="evenodd" clip-rule="evenodd" d="M40.618 75.4858L52.0321 66.7806L40.6364 58.0894L38.251 59.9087L47.2613 66.7806L38.2326 73.6665L40.618 75.4858Z" fill="#4472C4"/>
<path fill-rule="evenodd" clip-rule="evenodd" d="M0.998047 68.2875H46.7444V65.2875H0.998047L0.998047 68.2875Z" fill="#4472C4"/>
<path fill-rule="evenodd" clip-rule="evenodd" d="M40.618 137.785L52.0321 129.08L40.6364 120.389L38.251 122.208L47.2613 129.08L38.2326 135.966L40.618 137.785Z" fill="#4472C4"/>
<path fill-rule="evenodd" clip-rule="evenodd" d="M0.998047 130.587H46.7444V127.587H0.998047L0.998047 130.587Z" fill="#4472C4"/>
<path fill-rule="evenodd" clip-rule="evenodd" d="M40.618 200.085L52.0321 191.38L40.6364 182.688L38.251 184.508L47.2613 191.38L38.2326 198.266L40.618 200.085Z" fill="#4472C4"/>
<path fill-rule="evenodd" clip-rule="evenodd" d="M0.998047 192.886H46.7444V189.886H0.998047L0.998047 192.886Z" fill="#4472C4"/>
<path d="M133.807 22.4876H131.908C131.704 22.4876 131.533 22.4336 131.395 22.3256C131.257 22.2176 131.128 22.0586 131.008 21.8486L127.939 17.3215C127.861 17.2015 127.783 17.1026 127.705 17.0245C127.627 16.9405 127.54 16.8745 127.444 16.8266C127.348 16.7725 127.24 16.7366 127.12 16.7186C127 16.6946 126.865 16.6825 126.715 16.6825H125.221V22.4876H123.115V9.52755H125.221V15.0715H126.49C126.754 15.0715 126.976 15.0295 127.156 14.9455C127.336 14.8615 127.513 14.6996 127.687 14.4596L130.792 10.1035C130.894 9.93555 131.017 9.79755 131.161 9.68955C131.311 9.58155 131.488 9.52755 131.692 9.52755H133.474L129.766 14.7835C129.616 15.0055 129.445 15.1886 129.253 15.3326C129.061 15.4766 128.848 15.5905 128.614 15.6745C128.95 15.7645 129.235 15.9116 129.469 16.1156C129.709 16.3196 129.934 16.6016 130.144 16.9616L133.807 22.4876Z" fill="black"/>
<path d="M138.325 13.1635C139.003 13.1635 139.615 13.2745 140.161 13.4965C140.713 13.7185 141.181 14.0335 141.565 14.4415C141.955 14.8495 142.255 15.3446 142.465 15.9266C142.675 16.5086 142.78 17.1625 142.78 17.8885C142.78 18.6145 142.675 19.2685 142.465 19.8505C142.255 20.4325 141.955 20.9306 141.565 21.3446C141.181 21.7526 140.713 22.0676 140.161 22.2896C139.615 22.5116 139.003 22.6226 138.325 22.6226C137.641 22.6226 137.023 22.5116 136.471 22.2896C135.925 22.0676 135.457 21.7526 135.067 21.3446C134.677 20.9306 134.377 20.4325 134.167 19.8505C133.957 19.2685 133.852 18.6145 133.852 17.8885C133.852 17.1625 133.957 16.5086 134.167 15.9266C134.377 15.3446 134.677 14.8495 135.067 14.4415C135.457 14.0335 135.925 13.7185 136.471 13.4965C137.023 13.2745 137.641 13.1635 138.325 13.1635ZM138.325 21.1105C139.153 21.1105 139.768 20.8346 140.17 20.2826C140.578 19.7246 140.782 18.9296 140.782 17.8976C140.782 16.8656 140.578 16.0705 140.17 15.5125C139.768 14.9485 139.153 14.6666 138.325 14.6666C137.485 14.6666 136.861 14.9485 136.453 15.5125C136.045 16.0705 135.841 16.8656 135.841 17.8976C135.841 18.9296 136.045 19.7246 136.453 20.2826C136.861 20.8346 137.485 21.1105 138.325 21.1105Z" fill="black"/>
<path d="M146.574 20.1835C146.844 20.5315 147.138 20.7776 147.456 20.9216C147.78 21.0596 148.137 21.1286 148.527 21.1286C149.283 21.1286 149.871 20.8526 150.291 20.3006C150.717 19.7486 150.93 18.9266 150.93 17.8346C150.93 17.2706 150.882 16.7906 150.786 16.3945C150.69 15.9926 150.552 15.6655 150.372 15.4135C150.192 15.1615 149.973 14.9786 149.715 14.8646C149.457 14.7506 149.166 14.6935 148.842 14.6935C148.35 14.6935 147.924 14.8015 147.564 15.0175C147.21 15.2276 146.88 15.5306 146.574 15.9266V20.1835ZM146.475 14.6395C146.859 14.1895 147.294 13.8266 147.78 13.5505C148.272 13.2745 148.842 13.1366 149.49 13.1366C150.006 13.1366 150.474 13.2416 150.894 13.4516C151.314 13.6556 151.674 13.9555 151.974 14.3515C152.274 14.7475 152.505 15.2396 152.667 15.8276C152.835 16.4096 152.919 17.0786 152.919 17.8346C152.919 18.5126 152.826 19.1455 152.64 19.7335C152.46 20.3155 152.199 20.8226 151.857 21.2546C151.515 21.6806 151.101 22.0166 150.615 22.2626C150.129 22.5026 149.58 22.6226 148.968 22.6226C148.428 22.6226 147.969 22.5356 147.591 22.3616C147.219 22.1876 146.88 21.9476 146.574 21.6416V25.5386H144.639V13.3075H145.809C146.073 13.3075 146.241 13.4305 146.313 13.6766L146.475 14.6395Z" fill="black"/>
<path d="M162.63 22.4876H160.704V14.7656H156.735V22.4876H154.8V13.3075H162.63V22.4876Z" fill="black"/>
<path d="M173.14 13.3075L168.082 25.0976C168.016 25.2356 167.935 25.3436 167.839 25.4216C167.749 25.4996 167.608 25.5386 167.416 25.5386H165.985L167.677 21.8666L163.933 13.3075H165.616C165.778 13.3075 165.901 13.3465 165.985 13.4245C166.075 13.4965 166.141 13.5836 166.183 13.6856L168.37 18.8965C168.424 19.0465 168.472 19.1965 168.514 19.3465C168.562 19.4905 168.607 19.6406 168.649 19.7966C168.697 19.6406 168.745 19.4875 168.793 19.3375C168.841 19.1875 168.895 19.0376 168.955 18.8876L171.052 13.6856C171.094 13.5776 171.163 13.4875 171.259 13.4155C171.361 13.3435 171.472 13.3075 171.592 13.3075H173.14Z" fill="black"/>
<path d="M180.624 15.1076C180.564 15.1856 180.507 15.2456 180.453 15.2876C180.399 15.3296 180.321 15.3506 180.219 15.3506C180.117 15.3506 180.009 15.3145 179.895 15.2425C179.787 15.1705 179.655 15.0926 179.499 15.0086C179.349 14.9186 179.166 14.8376 178.95 14.7656C178.734 14.6935 178.464 14.6575 178.14 14.6575C177.72 14.6575 177.351 14.7325 177.033 14.8825C176.721 15.0325 176.457 15.2485 176.241 15.5305C176.031 15.8065 175.872 16.1455 175.764 16.5475C175.662 16.9435 175.611 17.3905 175.611 17.8885C175.611 18.4045 175.668 18.8636 175.782 19.2656C175.896 19.6676 176.058 20.0066 176.268 20.2826C176.484 20.5586 176.742 20.7685 177.042 20.9125C177.348 21.0565 177.69 21.1286 178.068 21.1286C178.44 21.1286 178.743 21.0836 178.977 20.9936C179.211 20.9036 179.406 20.8046 179.562 20.6966C179.718 20.5886 179.85 20.4895 179.958 20.3995C180.072 20.3095 180.192 20.2645 180.318 20.2645C180.474 20.2645 180.594 20.3245 180.678 20.4445L181.227 21.1556C181.005 21.4255 180.759 21.6535 180.489 21.8396C180.219 22.0256 179.934 22.1786 179.634 22.2986C179.334 22.4126 179.022 22.4936 178.698 22.5416C178.374 22.5956 178.047 22.6226 177.717 22.6226C177.147 22.6226 176.613 22.5176 176.115 22.3076C175.623 22.0916 175.191 21.7826 174.819 21.3806C174.453 20.9726 174.162 20.4775 173.946 19.8955C173.736 19.3075 173.631 18.6385 173.631 17.8885C173.631 17.2105 173.727 16.5835 173.919 16.0075C174.111 15.4255 174.39 14.9246 174.756 14.5046C175.128 14.0846 175.587 13.7575 176.133 13.5235C176.679 13.2835 177.309 13.1635 178.023 13.1635C178.689 13.1635 179.274 13.2716 179.778 13.4876C180.288 13.7035 180.741 14.0095 181.137 14.4055L180.624 15.1076Z" fill="black"/>
<path d="M420.087 65.9694C420.201 65.9694 420.3 66.0144 420.384 66.1044L421.221 67.0134C420.693 67.6494 420.045 68.1414 419.277 68.4894C418.509 68.8314 417.591 69.0024 416.523 69.0024C415.575 69.0024 414.717 68.8404 413.949 68.5164C413.187 68.1864 412.536 67.7304 411.996 67.1484C411.456 66.5604 411.039 65.8614 410.745 65.0514C410.457 64.2414 410.313 63.3504 410.313 62.3784C410.313 61.4064 410.466 60.5154 410.772 59.7054C411.084 58.8894 411.519 58.1904 412.077 57.6084C412.641 57.0204 413.313 56.5644 414.093 56.2404C414.879 55.9164 415.743 55.7544 416.685 55.7544C417.621 55.7544 418.446 55.9074 419.16 56.2134C419.88 56.5134 420.504 56.9154 421.032 57.4194L420.339 58.4004C420.291 58.4664 420.234 58.5234 420.168 58.5714C420.102 58.6194 420.012 58.6434 419.898 58.6434C419.778 58.6434 419.64 58.5894 419.484 58.4814C419.334 58.3674 419.139 58.2444 418.899 58.1124C418.665 57.9744 418.368 57.8514 418.008 57.7434C417.654 57.6294 417.21 57.5724 416.676 57.5724C416.058 57.5724 415.491 57.6804 414.975 57.8964C414.459 58.1124 414.015 58.4274 413.643 58.8414C413.271 59.2554 412.98 59.7594 412.77 60.3534C412.566 60.9474 412.464 61.6224 412.464 62.3784C412.464 63.1404 412.572 63.8214 412.788 64.4214C413.004 65.0154 413.301 65.5194 413.679 65.9334C414.057 66.3414 414.501 66.6534 415.011 66.8694C415.521 67.0854 416.07 67.1934 416.658 67.1934C417.018 67.1934 417.339 67.1754 417.621 67.1394C417.909 67.0974 418.173 67.0344 418.413 66.9504C418.653 66.8604 418.878 66.7494 419.088 66.6174C419.304 66.4854 419.517 66.3234 419.727 66.1314C419.847 66.0234 419.967 65.9694 420.087 65.9694Z" fill="black"/>
<path d="M430.034 61.1364H426.65V68.8584H424.715V61.1364H421.322V59.6784H430.034V61.1364Z" fill="black"/>
<path d="M433.386 66.5544C433.656 66.9024 433.95 67.1484 434.268 67.2924C434.592 67.4304 434.949 67.4994 435.339 67.4994C436.095 67.4994 436.683 67.2234 437.103 66.6714C437.529 66.1194 437.742 65.2974 437.742 64.2054C437.742 63.6414 437.694 63.1614 437.598 62.7654C437.502 62.3634 437.364 62.0364 437.184 61.7844C437.004 61.5324 436.785 61.3494 436.527 61.2354C436.269 61.1214 435.978 61.0644 435.654 61.0644C435.162 61.0644 434.736 61.1724 434.376 61.3884C434.022 61.5984 433.692 61.9014 433.386 62.2974V66.5544ZM433.287 61.0104C433.671 60.5604 434.106 60.1974 434.592 59.9214C435.084 59.6454 435.654 59.5074 436.302 59.5074C436.818 59.5074 437.286 59.6124 437.706 59.8224C438.126 60.0264 438.486 60.3264 438.786 60.7224C439.086 61.1184 439.317 61.6104 439.479 62.1984C439.647 62.7804 439.731 63.4494 439.731 64.2054C439.731 64.8834 439.638 65.5164 439.452 66.1044C439.272 66.6864 439.011 67.1934 438.669 67.6254C438.327 68.0514 437.913 68.3874 437.427 68.6334C436.941 68.8734 436.392 68.9934 435.78 68.9934C435.24 68.9934 434.781 68.9064 434.403 68.7324C434.031 68.5584 433.692 68.3184 433.386 68.0124V71.9094H431.451V59.6784H432.621C432.885 59.6784 433.053 59.8014 433.125 60.0474L433.287 61.0104Z" fill="black"/>
<path d="M449.51 59.6784L444.452 71.4684C444.386 71.6064 444.305 71.7144 444.209 71.7924C444.119 71.8704 443.978 71.9094 443.786 71.9094H442.355L444.047 68.2374L440.303 59.6784H441.986C442.148 59.6784 442.271 59.7174 442.355 59.7954C442.445 59.8674 442.511 59.9544 442.553 60.0564L444.74 65.2674C444.794 65.4174 444.842 65.5674 444.884 65.7174C444.932 65.8614 444.977 66.0114 445.019 66.1674C445.067 66.0114 445.115 65.8584 445.163 65.7084C445.211 65.5584 445.265 65.4084 445.325 65.2584L447.422 60.0564C447.464 59.9484 447.533 59.8584 447.629 59.7864C447.731 59.7144 447.842 59.6784 447.962 59.6784H449.51Z" fill="black"/>
<path d="M455.294 63.8724V60.9564H453.935C453.623 60.9564 453.362 61.0014 453.152 61.0914C452.942 61.1814 452.774 61.2984 452.648 61.4424C452.522 61.5804 452.432 61.7364 452.378 61.9104C452.324 62.0844 452.297 62.2554 452.297 62.4234C452.297 62.8734 452.456 63.2274 452.774 63.4854C453.098 63.7434 453.533 63.8724 454.079 63.8724H455.294ZM457.139 59.6784V68.8584H455.294V65.0964H454.763C454.589 65.0964 454.445 65.1114 454.331 65.1414C454.217 65.1714 454.118 65.2134 454.034 65.2674C453.956 65.3214 453.884 65.3874 453.818 65.4654C453.758 65.5434 453.698 65.6304 453.638 65.7264L451.919 68.1834C451.793 68.4114 451.643 68.5824 451.469 68.6964C451.301 68.8044 451.046 68.8584 450.704 68.8584H449.372L451.847 65.5194C452.075 65.1234 452.393 64.8534 452.801 64.7094C452.357 64.6434 451.979 64.5294 451.667 64.3674C451.355 64.2054 451.103 64.0164 450.911 63.8004C450.719 63.5844 450.578 63.3504 450.488 63.0984C450.404 62.8404 450.362 62.5854 450.362 62.3334C450.362 62.0034 450.425 61.6794 450.551 61.3614C450.683 61.0434 450.89 60.7614 451.172 60.5154C451.454 60.2634 451.817 60.0624 452.261 59.9124C452.711 59.7564 453.251 59.6784 453.881 59.6784H457.139Z" fill="black"/>
<path d="M471.818 68.8584H469.892V61.1364H465.923V68.8584H463.988V59.6784H471.818V68.8584Z" fill="black"/>
<path d="M482.482 68.8584H480.547V61.1814H477.991C477.919 62.3274 477.808 63.3174 477.658 64.1514C477.514 64.9794 477.34 65.6814 477.136 66.2574C476.932 66.8334 476.704 67.3014 476.452 67.6614C476.2 68.0154 475.933 68.2914 475.651 68.4894C475.369 68.6874 475.078 68.8194 474.778 68.8854C474.484 68.9514 474.187 68.9844 473.887 68.9844C473.305 68.9844 473.014 68.8884 473.014 68.6964V67.4814H473.518C473.716 67.4814 473.917 67.4484 474.121 67.3824C474.331 67.3164 474.532 67.1874 474.724 66.9954C474.916 66.7974 475.099 66.5214 475.273 66.1674C475.453 65.8134 475.615 65.3484 475.759 64.7724C475.909 64.1904 476.038 63.4854 476.146 62.6574C476.254 61.8234 476.338 60.8304 476.398 59.6784H482.482V68.8584Z" fill="black"/>
<path d="M489.741 64.8444C489.051 64.8684 488.469 64.9254 487.995 65.0154C487.521 65.0994 487.137 65.2104 486.843 65.3484C486.549 65.4804 486.336 65.6394 486.204 65.8254C486.078 66.0114 486.015 66.2154 486.015 66.4374C486.015 66.6534 486.048 66.8394 486.114 66.9954C486.186 67.1454 486.282 67.2714 486.402 67.3734C486.528 67.4694 486.672 67.5414 486.834 67.5894C487.002 67.6314 487.185 67.6524 487.383 67.6524C487.887 67.6524 488.319 67.5594 488.679 67.3734C489.045 67.1814 489.399 66.9054 489.741 66.5454V64.8444ZM484.611 60.9564C485.649 59.9904 486.885 59.5074 488.319 59.5074C488.847 59.5074 489.315 59.5944 489.723 59.7684C490.137 59.9364 490.482 60.1764 490.758 60.4884C491.04 60.8004 491.253 61.1724 491.397 61.6044C491.547 62.0304 491.622 62.5044 491.622 63.0264V68.8584H490.758C490.572 68.8584 490.431 68.8314 490.335 68.7774C490.239 68.7174 490.158 68.6004 490.092 68.4264L489.903 67.6794C489.669 67.8894 489.438 68.0784 489.21 68.2464C488.982 68.4084 488.745 68.5464 488.499 68.6604C488.259 68.7744 487.998 68.8584 487.716 68.9124C487.44 68.9724 487.134 69.0024 486.798 69.0024C486.426 69.0024 486.078 68.9514 485.754 68.8494C485.436 68.7474 485.16 68.5944 484.926 68.3904C484.692 68.1804 484.506 67.9224 484.368 67.6164C484.236 67.3104 484.17 66.9504 484.17 66.5364C484.17 66.1824 484.263 65.8374 484.449 65.5014C484.641 65.1654 484.953 64.8654 485.385 64.6014C485.823 64.3314 486.396 64.1094 487.104 63.9354C487.818 63.7614 488.697 63.6624 489.741 63.6384V63.0264C489.741 62.3664 489.6 61.8744 489.318 61.5504C489.036 61.2264 488.622 61.0644 488.076 61.0644C487.704 61.0644 487.392 61.1124 487.14 61.2084C486.888 61.2984 486.669 61.3974 486.483 61.5054C486.297 61.6134 486.132 61.7154 485.988 61.8114C485.844 61.9014 485.691 61.9464 485.529 61.9464C485.397 61.9464 485.283 61.9134 485.187 61.8474C485.097 61.7754 485.022 61.6884 484.962 61.5864L484.611 60.9564Z" fill="black"/>
<path d="M493.331 60.6504C493.679 60.3204 494.105 60.0534 494.609 59.8494C495.113 59.6394 495.716 59.5344 496.418 59.5344C496.982 59.5344 497.48 59.6034 497.912 59.7414C498.344 59.8734 498.707 60.0534 499.001 60.2814C499.295 60.5034 499.517 60.7614 499.667 61.0554C499.823 61.3494 499.901 61.6554 499.901 61.9734C499.901 62.1534 499.874 62.3394 499.82 62.5314C499.766 62.7174 499.676 62.9004 499.55 63.0804C499.43 63.2604 499.268 63.4284 499.064 63.5844C498.866 63.7404 498.62 63.8694 498.326 63.9714C498.872 64.1514 499.304 64.4304 499.622 64.8084C499.94 65.1804 500.099 65.6454 500.099 66.2034C500.099 66.6414 499.997 67.0344 499.793 67.3824C499.595 67.7244 499.328 68.0154 498.992 68.2554C498.662 68.4954 498.278 68.6784 497.84 68.8044C497.408 68.9304 496.958 68.9934 496.49 68.9934C496.208 68.9934 495.914 68.9664 495.608 68.9124C495.308 68.8644 495.008 68.7834 494.708 68.6694C494.414 68.5494 494.129 68.3964 493.853 68.2104C493.577 68.0244 493.328 67.7964 493.106 67.5264L493.664 66.8154C493.736 66.6954 493.856 66.6354 494.024 66.6354C494.144 66.6354 494.267 66.6804 494.393 66.7704C494.519 66.8604 494.666 66.9594 494.834 67.0674C495.008 67.1754 495.215 67.2744 495.455 67.3644C495.701 67.4544 496.004 67.4994 496.364 67.4994C496.664 67.4994 496.931 67.4634 497.165 67.3914C497.399 67.3194 497.597 67.2174 497.759 67.0854C497.921 66.9534 498.044 66.8004 498.128 66.6264C498.212 66.4464 498.254 66.2514 498.254 66.0414C498.254 65.6334 498.086 65.3124 497.75 65.0784C497.42 64.8384 496.898 64.7184 496.184 64.7184H495.149V63.4404H496.184C496.808 63.4404 497.291 63.3264 497.633 63.0984C497.975 62.8704 498.146 62.5734 498.146 62.2074C498.146 61.8774 497.996 61.5984 497.696 61.3704C497.402 61.1424 496.958 61.0284 496.364 61.0284C496.028 61.0284 495.74 61.0644 495.5 61.1364C495.266 61.2024 495.068 61.2774 494.906 61.3614C494.744 61.4394 494.606 61.5114 494.492 61.5774C494.384 61.6434 494.288 61.6764 494.204 61.6764C494.114 61.6764 494.036 61.6584 493.97 61.6224C493.91 61.5864 493.844 61.5114 493.772 61.3974L493.331 60.6504Z" fill="black"/>
<path d="M512.415 59.6514V68.8584H510.678V63.3054C510.678 63.1134 510.69 62.8974 510.714 62.6574C510.738 62.4114 510.768 62.1834 510.804 61.9734L507.879 67.2294C507.819 67.3374 507.741 67.4244 507.645 67.4904C507.549 67.5504 507.441 67.5804 507.321 67.5804H507.114C506.994 67.5804 506.886 67.5504 506.79 67.4904C506.7 67.4244 506.625 67.3374 506.565 67.2294L503.586 61.9464C503.622 62.1564 503.652 62.3874 503.676 62.6394C503.706 62.8854 503.721 63.1074 503.721 63.3054V68.8584H501.975V59.6514H503.559C503.691 59.6514 503.82 59.6814 503.946 59.7414C504.078 59.8014 504.192 59.9184 504.288 60.0924L506.781 64.3584C506.865 64.5144 506.94 64.6824 507.006 64.8624C507.078 65.0424 507.147 65.2224 507.213 65.4024C507.279 65.2224 507.348 65.0424 507.42 64.8624C507.492 64.6824 507.57 64.5144 507.654 64.3584L510.111 60.0924C510.201 59.9124 510.312 59.7954 510.444 59.7414C510.576 59.6814 510.708 59.6514 510.84 59.6514H512.415Z" fill="black"/>
<path d="M518.434 67.4544C518.716 67.4544 518.962 67.4184 519.172 67.3464C519.388 67.2684 519.565 67.1664 519.703 67.0404C519.847 66.9084 519.952 66.7524 520.018 66.5724C520.09 66.3924 520.126 66.1944 520.126 65.9784C520.126 65.7864 520.093 65.6064 520.027 65.4384C519.967 65.2644 519.868 65.1144 519.73 64.9884C519.598 64.8564 519.424 64.7544 519.208 64.6824C518.992 64.6044 518.728 64.5654 518.416 64.5654H516.625V67.4544H518.434ZM518.407 63.1704C519.043 63.1704 519.58 63.2484 520.018 63.4044C520.456 63.5544 520.81 63.7584 521.08 64.0164C521.35 64.2744 521.545 64.5744 521.665 64.9164C521.785 65.2524 521.845 65.6034 521.845 65.9694C521.845 66.3954 521.77 66.7854 521.62 67.1394C521.47 67.4874 521.248 67.7904 520.954 68.0484C520.666 68.3064 520.309 68.5074 519.883 68.6514C519.463 68.7894 518.98 68.8584 518.434 68.8584H514.789V59.6784H516.625V63.1704H518.407ZM525.607 59.6784V68.8584H523.672V59.6784H525.607Z" fill="black"/>
<path d="M421.338 188.075H419.223V176.762H413.202V188.075H411.087V175.115H421.338V188.075Z" fill="black"/>
<path d="M427.739 178.751C428.417 178.751 429.029 178.862 429.575 179.084C430.127 179.306 430.595 179.621 430.979 180.029C431.369 180.437 431.669 180.932 431.879 181.514C432.089 182.096 432.194 182.75 432.194 183.476C432.194 184.202 432.089 184.856 431.879 185.438C431.669 186.02 431.369 186.518 430.979 186.932C430.595 187.34 430.127 187.655 429.575 187.877C429.029 188.099 428.417 188.21 427.739 188.21C427.055 188.21 426.437 188.099 425.885 187.877C425.339 187.655 424.871 187.34 424.481 186.932C424.091 186.518 423.791 186.02 423.581 185.438C423.371 184.856 423.266 184.202 423.266 183.476C423.266 182.75 423.371 182.096 423.581 181.514C423.791 180.932 424.091 180.437 424.481 180.029C424.871 179.621 425.339 179.306 425.885 179.084C426.437 178.862 427.055 178.751 427.739 178.751ZM427.739 186.698C428.567 186.698 429.182 186.422 429.584 185.87C429.992 185.312 430.196 184.517 430.196 183.485C430.196 182.453 429.992 181.658 429.584 181.1C429.182 180.536 428.567 180.254 427.739 180.254C426.899 180.254 426.275 180.536 425.867 181.1C425.459 181.658 425.255 182.453 425.255 183.485C425.255 184.517 425.459 185.312 425.867 185.87C426.275 186.422 426.899 186.698 427.739 186.698Z" fill="black"/>
<path d="M439.579 179.417C439.675 179.261 439.804 179.135 439.966 179.039C440.134 178.943 440.308 178.895 440.488 178.895H442L439.741 182.342C439.597 182.576 439.447 182.765 439.291 182.909C439.135 183.053 438.943 183.164 438.715 183.242C439.009 183.326 439.252 183.455 439.444 183.629C439.642 183.797 439.819 184.016 439.975 184.286L442.252 188.075H440.92C440.578 188.075 440.311 188.018 440.119 187.904C439.933 187.79 439.774 187.622 439.642 187.4L438.085 184.718C437.959 184.49 437.794 184.322 437.59 184.214C437.386 184.106 437.155 184.052 436.897 184.052H435.988V188.084H434.053V178.895H435.988V182.756H436.771C437.023 182.756 437.233 182.708 437.401 182.612C437.569 182.516 437.713 182.369 437.833 182.171L439.579 179.417Z" fill="black"/>
<path d="M445.55 185.771C445.82 186.119 446.114 186.365 446.432 186.509C446.756 186.647 447.113 186.716 447.503 186.716C448.259 186.716 448.847 186.44 449.267 185.888C449.693 185.336 449.906 184.514 449.906 183.422C449.906 182.858 449.858 182.378 449.762 181.982C449.666 181.58 449.528 181.253 449.348 181.001C449.168 180.749 448.949 180.566 448.691 180.452C448.433 180.338 448.142 180.281 447.818 180.281C447.326 180.281 446.9 180.389 446.54 180.605C446.186 180.815 445.856 181.118 445.55 181.514V185.771ZM445.451 180.227C445.835 179.777 446.27 179.414 446.756 179.138C447.248 178.862 447.818 178.724 448.466 178.724C448.982 178.724 449.45 178.829 449.87 179.039C450.29 179.243 450.65 179.543 450.95 179.939C451.25 180.335 451.481 180.827 451.643 181.415C451.811 181.997 451.895 182.666 451.895 183.422C451.895 184.1 451.802 184.733 451.616 185.321C451.436 185.903 451.175 186.41 450.833 186.842C450.491 187.268 450.077 187.604 449.591 187.85C449.105 188.09 448.556 188.21 447.944 188.21C447.404 188.21 446.945 188.123 446.567 187.949C446.195 187.775 445.856 187.535 445.55 187.229V191.126H443.615V178.895H444.785C445.049 178.895 445.217 179.018 445.289 179.264L445.451 180.227Z" fill="black"/>
<path d="M457.421 186.671C457.703 186.671 457.949 186.635 458.159 186.563C458.375 186.485 458.552 186.383 458.69 186.257C458.834 186.125 458.939 185.969 459.005 185.789C459.077 185.609 459.113 185.411 459.113 185.195C459.113 185.003 459.08 184.823 459.014 184.655C458.954 184.481 458.855 184.331 458.717 184.205C458.585 184.073 458.411 183.971 458.195 183.899C457.979 183.821 457.715 183.782 457.403 183.782H455.612V186.671H457.421ZM457.394 182.387C458.03 182.387 458.567 182.465 459.005 182.621C459.443 182.771 459.797 182.975 460.067 183.233C460.337 183.491 460.532 183.791 460.652 184.133C460.772 184.469 460.832 184.82 460.832 185.186C460.832 185.612 460.757 186.002 460.607 186.356C460.457 186.704 460.235 187.007 459.941 187.265C459.653 187.523 459.296 187.724 458.87 187.868C458.45 188.006 457.967 188.075 457.421 188.075H453.776V178.895H455.612V182.387H457.394ZM464.594 178.895V188.075H462.659V178.895H464.594Z" fill="black"/>
<path d="M474.717 180.353H471.333V188.075H469.398V180.353H466.005V178.895H474.717V180.353Z" fill="black"/>
<path d="M484.208 178.895V188.075H482.273V182.324C482.273 182.198 482.279 182.06 482.291 181.91C482.303 181.76 482.321 181.607 482.345 181.451C482.285 181.583 482.225 181.706 482.165 181.82C482.111 181.928 482.051 182.027 481.985 182.117L477.998 187.598C477.926 187.712 477.83 187.823 477.71 187.931C477.59 188.033 477.455 188.084 477.305 188.084H476.135V178.895H478.07V184.646C478.07 184.772 478.061 184.913 478.043 185.069C478.031 185.225 478.013 185.381 477.989 185.537C478.109 185.261 478.232 185.033 478.358 184.853L482.345 179.381C482.417 179.261 482.513 179.15 482.633 179.048C482.753 178.946 482.888 178.895 483.038 178.895H484.208Z" fill="black"/>
<path d="M492.58 182.45C492.58 182.126 492.532 181.826 492.436 181.55C492.346 181.268 492.211 181.025 492.031 180.821C491.851 180.611 491.626 180.449 491.356 180.335C491.092 180.215 490.786 180.155 490.438 180.155C489.736 180.155 489.184 180.356 488.782 180.758C488.38 181.16 488.125 181.724 488.017 182.45H492.58ZM487.963 183.638C487.987 184.16 488.068 184.613 488.206 184.997C488.344 185.375 488.527 185.69 488.755 185.942C488.989 186.194 489.265 186.383 489.583 186.509C489.907 186.629 490.267 186.689 490.663 186.689C491.041 186.689 491.368 186.647 491.644 186.563C491.92 186.473 492.16 186.377 492.364 186.275C492.568 186.167 492.742 186.071 492.886 185.987C493.03 185.897 493.162 185.852 493.282 185.852C493.438 185.852 493.558 185.912 493.642 186.032L494.191 186.743C493.963 187.013 493.705 187.241 493.417 187.427C493.129 187.613 492.823 187.766 492.499 187.886C492.175 188 491.842 188.081 491.5 188.129C491.158 188.183 490.825 188.21 490.501 188.21C489.865 188.21 489.274 188.105 488.728 187.895C488.188 187.679 487.717 187.364 487.315 186.95C486.919 186.536 486.607 186.023 486.379 185.411C486.157 184.799 486.046 184.094 486.046 183.296C486.046 182.66 486.145 182.066 486.343 181.514C486.547 180.962 486.835 180.482 487.207 180.074C487.585 179.666 488.041 179.345 488.575 179.111C489.115 178.871 489.724 178.751 490.402 178.751C490.966 178.751 491.488 178.844 491.968 179.03C492.448 179.21 492.862 179.477 493.21 179.831C493.558 180.185 493.828 180.62 494.02 181.136C494.218 181.646 494.317 182.228 494.317 182.882C494.317 183.182 494.284 183.383 494.218 183.485C494.152 183.587 494.032 183.638 493.858 183.638H487.963Z" fill="black"/>
<path d="M262.771 246.224C262.885 246.224 262.984 246.269 263.068 246.359L263.905 247.268C263.377 247.904 262.729 248.396 261.961 248.744C261.193 249.086 260.275 249.257 259.207 249.257C258.259 249.257 257.401 249.095 256.633 248.771C255.871 248.441 255.22 247.985 254.68 247.403C254.14 246.815 253.723 246.116 253.429 245.306C253.141 244.496 252.997 243.605 252.997 242.633C252.997 241.661 253.15 240.77 253.456 239.96C253.768 239.144 254.203 238.445 254.761 237.863C255.325 237.275 255.997 236.819 256.777 236.495C257.563 236.171 258.427 236.009 259.369 236.009C260.305 236.009 261.13 236.162 261.844 236.468C262.564 236.768 263.188 237.17 263.716 237.674L263.023 238.655C262.975 238.721 262.918 238.778 262.852 238.826C262.786 238.874 262.696 238.898 262.582 238.898C262.462 238.898 262.324 238.844 262.168 238.736C262.018 238.622 261.823 238.499 261.583 238.367C261.349 238.229 261.052 238.106 260.692 237.998C260.338 237.884 259.894 237.827 259.36 237.827C258.742 237.827 258.175 237.935 257.659 238.151C257.143 238.367 256.699 238.682 256.327 239.096C255.955 239.51 255.664 240.014 255.454 240.608C255.25 241.202 255.148 241.877 255.148 242.633C255.148 243.395 255.256 244.076 255.472 244.676C255.688 245.27 255.985 245.774 256.363 246.188C256.741 246.596 257.185 246.908 257.695 247.124C258.205 247.34 258.754 247.448 259.342 247.448C259.702 247.448 260.023 247.43 260.305 247.394C260.593 247.352 260.857 247.289 261.097 247.205C261.337 247.115 261.562 247.004 261.772 246.872C261.988 246.74 262.201 246.578 262.411 246.386C262.531 246.278 262.651 246.224 262.771 246.224Z" fill="black"/>
<path d="M269.14 239.789C269.818 239.789 270.43 239.9 270.976 240.122C271.528 240.344 271.996 240.659 272.38 241.067C272.77 241.475 273.07 241.97 273.28 242.552C273.49 243.134 273.595 243.788 273.595 244.514C273.595 245.24 273.49 245.894 273.28 246.476C273.07 247.058 272.77 247.556 272.38 247.97C271.996 248.378 271.528 248.693 270.976 248.915C270.43 249.137 269.818 249.248 269.14 249.248C268.456 249.248 267.838 249.137 267.286 248.915C266.74 248.693 266.272 248.378 265.882 247.97C265.492 247.556 265.192 247.058 264.982 246.476C264.772 245.894 264.667 245.24 264.667 244.514C264.667 243.788 264.772 243.134 264.982 242.552C265.192 241.97 265.492 241.475 265.882 241.067C266.272 240.659 266.74 240.344 267.286 240.122C267.838 239.9 268.456 239.789 269.14 239.789ZM269.14 247.736C269.968 247.736 270.583 247.46 270.985 246.908C271.393 246.35 271.597 245.555 271.597 244.523C271.597 243.491 271.393 242.696 270.985 242.138C270.583 241.574 269.968 241.292 269.14 241.292C268.3 241.292 267.676 241.574 267.268 242.138C266.86 242.696 266.656 243.491 266.656 244.523C266.656 245.555 266.86 246.35 267.268 246.908C267.676 247.46 268.3 247.736 269.14 247.736Z" fill="black"/>
<path d="M283.284 249.113H281.358V241.391H277.389V249.113H275.454V239.933H283.284V249.113Z" fill="black"/>
<path d="M293.947 249.113H292.012V241.436H289.456C289.384 242.582 289.273 243.572 289.123 244.406C288.979 245.234 288.805 245.936 288.601 246.512C288.397 247.088 288.169 247.556 287.917 247.916C287.665 248.27 287.398 248.546 287.116 248.744C286.834 248.942 286.543 249.074 286.243 249.14C285.949 249.206 285.652 249.239 285.352 249.239C284.77 249.239 284.479 249.143 284.479 248.951V247.736H284.983C285.181 247.736 285.382 247.703 285.586 247.637C285.796 247.571 285.997 247.442 286.189 247.25C286.381 247.052 286.564 246.776 286.738 246.422C286.918 246.068 287.08 245.603 287.224 245.027C287.374 244.445 287.503 243.74 287.611 242.912C287.719 242.078 287.803 241.085 287.863 239.933H293.947V249.113Z" fill="black"/>
<path d="M300.27 239.789C300.948 239.789 301.56 239.9 302.106 240.122C302.658 240.344 303.126 240.659 303.51 241.067C303.9 241.475 304.2 241.97 304.41 242.552C304.62 243.134 304.725 243.788 304.725 244.514C304.725 245.24 304.62 245.894 304.41 246.476C304.2 247.058 303.9 247.556 303.51 247.97C303.126 248.378 302.658 248.693 302.106 248.915C301.56 249.137 300.948 249.248 300.27 249.248C299.586 249.248 298.968 249.137 298.416 248.915C297.87 248.693 297.402 248.378 297.012 247.97C296.622 247.556 296.322 247.058 296.112 246.476C295.902 245.894 295.797 245.24 295.797 244.514C295.797 243.788 295.902 243.134 296.112 242.552C296.322 241.97 296.622 241.475 297.012 241.067C297.402 240.659 297.87 240.344 298.416 240.122C298.968 239.9 299.586 239.789 300.27 239.789ZM300.27 247.736C301.098 247.736 301.713 247.46 302.115 246.908C302.523 246.35 302.727 245.555 302.727 244.523C302.727 243.491 302.523 242.696 302.115 242.138C301.713 241.574 301.098 241.292 300.27 241.292C299.43 241.292 298.806 241.574 298.398 242.138C297.99 242.696 297.786 243.491 297.786 244.523C297.786 245.555 297.99 246.35 298.398 246.908C298.806 247.46 299.43 247.736 300.27 247.736Z" fill="black"/>
<path d="M156.403 249.113H154.504C154.3 249.113 154.129 249.059 153.991 248.951C153.853 248.843 153.724 248.684 153.604 248.474L150.535 243.947C150.457 243.827 150.379 243.728 150.301 243.65C150.223 243.566 150.136 243.5 150.04 243.452C149.944 243.398 149.836 243.362 149.716 243.344C149.596 243.32 149.461 243.308 149.311 243.308H147.817V249.113H145.711V236.153H147.817V241.697H149.086C149.35 241.697 149.572 241.655 149.752 241.571C149.932 241.487 150.109 241.325 150.283 241.085L153.388 236.729C153.49 236.561 153.613 236.423 153.757 236.315C153.907 236.207 154.084 236.153 154.288 236.153H156.07L152.362 241.409C152.212 241.631 152.041 241.814 151.849 241.958C151.657 242.102 151.444 242.216 151.21 242.3C151.546 242.39 151.831 242.537 152.065 242.741C152.305 242.945 152.53 243.227 152.74 243.587L156.403 249.113Z" fill="black"/>
<path d="M162.42 245.099C161.73 245.123 161.148 245.18 160.674 245.27C160.2 245.354 159.816 245.465 159.522 245.603C159.228 245.735 159.015 245.894 158.883 246.08C158.757 246.266 158.694 246.47 158.694 246.692C158.694 246.908 158.727 247.094 158.793 247.25C158.865 247.4 158.961 247.526 159.081 247.628C159.207 247.724 159.351 247.796 159.513 247.844C159.681 247.886 159.864 247.907 160.062 247.907C160.566 247.907 160.998 247.814 161.358 247.628C161.724 247.436 162.078 247.16 162.42 246.8V245.099ZM157.29 241.211C158.328 240.245 159.564 239.762 160.998 239.762C161.526 239.762 161.994 239.849 162.402 240.023C162.816 240.191 163.161 240.431 163.437 240.743C163.719 241.055 163.932 241.427 164.076 241.859C164.226 242.285 164.301 242.759 164.301 243.281V249.113H163.437C163.251 249.113 163.11 249.086 163.014 249.032C162.918 248.972 162.837 248.855 162.771 248.681L162.582 247.934C162.348 248.144 162.117 248.333 161.889 248.501C161.661 248.663 161.424 248.801 161.178 248.915C160.938 249.029 160.677 249.113 160.395 249.167C160.119 249.227 159.813 249.257 159.477 249.257C159.105 249.257 158.757 249.206 158.433 249.104C158.115 249.002 157.839 248.849 157.605 248.645C157.371 248.435 157.185 248.177 157.047 247.871C156.915 247.565 156.849 247.205 156.849 246.791C156.849 246.437 156.942 246.092 157.128 245.756C157.32 245.42 157.632 245.12 158.064 244.856C158.502 244.586 159.075 244.364 159.783 244.19C160.497 244.016 161.376 243.917 162.42 243.893V243.281C162.42 242.621 162.279 242.129 161.997 241.805C161.715 241.481 161.301 241.319 160.755 241.319C160.383 241.319 160.071 241.367 159.819 241.463C159.567 241.553 159.348 241.652 159.162 241.76C158.976 241.868 158.811 241.97 158.667 242.066C158.523 242.156 158.37 242.201 158.208 242.201C158.076 242.201 157.962 242.168 157.866 242.102C157.776 242.03 157.701 241.943 157.641 241.841L157.29 241.211Z" fill="black"/>
<path d="M174.133 241.391H170.749V249.113H168.814V241.391H165.421V239.933H174.133V241.391Z" fill="black"/>
<path d="M179.203 239.789C179.881 239.789 180.493 239.9 181.039 240.122C181.591 240.344 182.059 240.659 182.443 241.067C182.833 241.475 183.133 241.97 183.343 242.552C183.553 243.134 183.658 243.788 183.658 244.514C183.658 245.24 183.553 245.894 183.343 246.476C183.133 247.058 182.833 247.556 182.443 247.97C182.059 248.378 181.591 248.693 181.039 248.915C180.493 249.137 179.881 249.248 179.203 249.248C178.519 249.248 177.901 249.137 177.349 248.915C176.803 248.693 176.335 248.378 175.945 247.97C175.555 247.556 175.255 247.058 175.045 246.476C174.835 245.894 174.73 245.24 174.73 244.514C174.73 243.788 174.835 243.134 175.045 242.552C175.255 241.97 175.555 241.475 175.945 241.067C176.335 240.659 176.803 240.344 177.349 240.122C177.901 239.9 178.519 239.789 179.203 239.789ZM179.203 247.736C180.031 247.736 180.646 247.46 181.048 246.908C181.456 246.35 181.66 245.555 181.66 244.523C181.66 243.491 181.456 242.696 181.048 242.138C180.646 241.574 180.031 241.292 179.203 241.292C178.363 241.292 177.739 241.574 177.331 242.138C176.923 242.696 176.719 243.491 176.719 244.523C176.719 245.555 176.923 246.35 177.331 246.908C177.739 247.46 178.363 247.736 179.203 247.736Z" fill="black"/>
<path d="M191.438 247.718V241.436H188.864C188.81 242.276 188.732 243.029 188.63 243.695C188.534 244.361 188.42 244.952 188.288 245.468C188.162 245.978 188.021 246.419 187.865 246.791C187.709 247.157 187.547 247.466 187.379 247.718H191.438ZM194.993 247.655V251.642C194.993 251.822 194.939 251.963 194.831 252.065C194.729 252.173 194.597 252.227 194.435 252.227H193.238V249.113H185.975V251.678C185.975 251.816 185.93 251.942 185.84 252.056C185.756 252.17 185.624 252.227 185.444 252.227H184.22V247.718H184.499C184.709 247.718 184.916 247.688 185.12 247.628C185.324 247.562 185.519 247.433 185.705 247.241C185.891 247.049 186.068 246.779 186.236 246.431C186.404 246.077 186.554 245.612 186.686 245.036C186.824 244.46 186.944 243.755 187.046 242.921C187.148 242.087 187.229 241.091 187.289 239.933H193.31V247.655H194.993Z" fill="black"/>
<path fill-rule="evenodd" clip-rule="evenodd" d="M150.52 56.0369C148.053 56.5049 146.187 58.6729 146.187 61.2766C146.187 64.2221 148.575 66.6099 151.52 66.6099C154.466 66.6099 156.853 64.2221 156.853 61.2766C156.853 58.6729 154.988 56.5049 152.52 56.0369L152.52 27.5466L150.52 27.5466L150.52 56.0369Z" fill="black"/>
<path fill-rule="evenodd" clip-rule="evenodd" d="M169.035 147.965C171.503 147.497 173.368 145.329 173.368 142.725C173.368 139.78 170.981 137.392 168.035 137.392C165.09 137.392 162.702 139.78 162.702 142.725C162.702 145.329 164.568 147.497 167.035 147.965L167.035 231.113L169.035 231.113L169.035 147.965Z" fill="black"/>
<path fill-rule="evenodd" clip-rule="evenodd" d="M275.074 169.784C277.541 169.316 279.407 167.148 279.407 164.544C279.407 161.598 277.019 159.211 274.074 159.211C271.128 159.211 268.74 161.598 268.74 164.544C268.74 167.148 270.606 169.316 273.074 169.784L273.074 231.113L275.074 231.113L275.074 169.784Z" fill="black"/>
<path fill-rule="evenodd" clip-rule="evenodd" d="M309.427 80.6626C306.96 81.1307 305.094 83.2986 305.094 85.9024C305.094 88.8479 307.482 91.2357 310.427 91.2357C313.373 91.2357 315.761 88.8479 315.761 85.9024C315.761 83.2986 313.895 81.1307 311.427 80.6626L311.427 27.5466L309.427 27.5466L309.427 80.6626Z" fill="black"/>
<path fill-rule="evenodd" clip-rule="evenodd" d="M466.474 122.353C464.006 122.821 462.14 124.989 462.14 127.593C462.14 130.538 464.528 132.926 467.474 132.926C470.419 132.926 472.807 130.538 472.807 127.593C472.807 124.989 470.941 122.821 468.474 122.353L468.474 78.2649L466.474 78.2649L466.474 122.353Z" fill="black"/>
<path fill-rule="evenodd" clip-rule="evenodd" d="M564.965 184.082C565.433 186.549 567.601 188.415 570.205 188.415C573.151 188.415 575.538 186.027 575.538 183.082C575.538 180.136 573.151 177.748 570.205 177.748C567.601 177.748 565.433 179.614 564.965 182.082H499.322V184.082H564.965Z" fill="black"/>
<path fill-rule="evenodd" clip-rule="evenodd" d="M585.333 234.826C585.801 237.294 587.969 239.16 590.572 239.16C593.518 239.16 595.906 236.772 595.906 233.826C595.906 230.881 593.518 228.493 590.572 228.493C587.969 228.493 585.801 230.359 585.333 232.826H537.374V234.826H585.333Z" fill="black"/>
<path d="M153.685 61.2766C153.685 62.4851 152.716 63.4648 151.52 63.4648C150.325 63.4648 149.356 62.4851 149.356 61.2766C149.356 60.0681 150.325 59.0884 151.52 59.0884C152.716 59.0884 153.685 60.0681 153.685 61.2766Z" fill="white"/>
<path d="M312.592 85.9023C312.592 87.1109 311.623 88.0906 310.428 88.0906C309.232 88.0906 308.263 87.1109 308.263 85.9023C308.263 84.6938 309.232 83.7141 310.428 83.7141C311.623 83.7141 312.592 84.6938 312.592 85.9023Z" fill="white"/>
<path d="M170.2 142.725C170.2 143.934 169.231 144.914 168.035 144.914C166.84 144.914 165.871 143.934 165.871 142.725C165.871 141.517 166.84 140.537 168.035 140.537C169.231 140.537 170.2 141.517 170.2 142.725Z" fill="white"/>
<path d="M276.238 164.259C276.238 165.468 275.268 166.447 274.073 166.447C272.878 166.447 271.908 165.468 271.908 164.259C271.908 163.051 272.878 162.071 274.073 162.071C275.268 162.071 276.238 163.051 276.238 164.259Z" fill="white"/>
<path d="M469.638 127.593C469.638 128.802 468.669 129.781 467.474 129.781C466.278 129.781 465.309 128.802 465.309 127.593C465.309 126.384 466.278 125.405 467.474 125.405C468.669 125.405 469.638 126.384 469.638 127.593Z" fill="white"/>
<path d="M572.369 183.082C572.369 184.29 571.4 185.27 570.205 185.27C569.009 185.27 568.04 184.29 568.04 183.082C568.04 181.873 569.009 180.894 570.205 180.894C571.4 180.894 572.369 181.873 572.369 183.082Z" fill="white"/>
<path d="M592.737 233.826C592.737 235.035 591.767 236.014 590.572 236.014C589.377 236.014 588.407 235.035 588.407 233.826C588.407 232.618 589.377 231.638 590.572 231.638C591.767 231.638 592.737 232.618 592.737 233.826Z" fill="white"/>
<defs>
<linearGradient id="paint0_linear_0_3" x1="295.959" y1="128.181" x2="554.137" y2="128.181" gradientUnits="userSpaceOnUse">
<stop stop-color="#1800A7"/>
<stop offset="0.211458" stop-color="#760064"/>
<stop offset="0.482292" stop-color="#F0000A"/>
<stop offset="0.701042" stop-color="#FF6201"/>
<stop offset="1" stop-color="#FFE200"/>
</linearGradient>
</defs>
</svg>
