<svg width="266" height="165" viewBox="0 0 266 165" fill="none" xmlns="http://www.w3.org/2000/svg">
<path d="M196.456 58.9529L178.562 83.6621" stroke="#525252" stroke-width="8" stroke-linecap="square"/>
<path d="M219.685 60.4165L204.455 81.7357" stroke="#525252" stroke-width="8" stroke-linecap="square"/>
<path d="M40.0039 89.8545H225.995V118.896C225.995 124.418 221.518 128.896 215.995 128.896H50.0039C44.4811 128.896 40.0039 124.418 40.0039 118.896V89.8545Z" fill="#51BF47"/>
<path d="M40.0039 91.7358C40.0039 86.213 44.4811 81.7358 50.0039 81.7358H215.995C221.518 81.7358 225.995 86.213 225.995 91.7358V92.4136H40.0039V91.7358Z" fill="#525252"/>
<path d="M66.9897 58.9531L49.0967 83.6624" stroke="#525252" stroke-width="8" stroke-linecap="square"/>
<path d="M144.668 58.9531L126.775 83.6624" stroke="#525252" stroke-width="8" stroke-linecap="square"/>
<path d="M170.562 58.9529L152.669 83.6621" stroke="#525252" stroke-width="8" stroke-linecap="square"/>
<path d="M118.776 58.9531L100.883 83.6624" stroke="#525252" stroke-width="8" stroke-linecap="square"/>
<path d="M92.8833 58.9531L74.9902 83.6624" stroke="#525252" stroke-width="8" stroke-linecap="square"/>
<rect x="40.0039" y="53.5171" width="185.991" height="10.8716" rx="4" fill="#525252"/>
<rect x="40.0039" y="36.1045" width="185.991" height="10.8716" rx="4" fill="#525252"/>
</svg>
