<svg width="265" height="165" viewBox="0 0 265 165" fill="none" xmlns="http://www.w3.org/2000/svg">
<path d="M96.459 82.9573H201.421C206.944 82.9573 211.421 87.4344 211.421 92.9573V96.2566H96.459V82.9573Z" fill="#525252"/>
<path fill-rule="evenodd" clip-rule="evenodd" d="M78.3147 4.82983C72.0008 4.82983 66.8823 9.94825 66.8823 16.2621V111.078C58.3262 115.299 52.4404 124.11 52.4404 134.296C52.4404 148.586 64.0247 160.17 78.3147 160.17C92.6046 160.17 104.189 148.586 104.189 134.296C104.189 124.11 98.3031 115.299 89.747 111.078V16.2621C89.747 9.94826 84.6286 4.82983 78.3147 4.82983Z" fill="#51BF47"/>
<path fill-rule="evenodd" clip-rule="evenodd" d="M113.432 127.665C112.003 117.332 105.469 108.629 96.459 104.184V96.2582L211.421 96.2568L211.421 117.664C211.421 123.187 206.944 127.664 201.421 127.664L113.432 127.665Z" fill="#51BF47"/>
<rect x="96.459" y="44.0132" width="7.42207" height="17.8519" rx="3.71104" transform="rotate(-90 96.459 44.0132)" fill="#51BF47"/>
<rect x="96.459" y="67.4878" width="7.42207" height="17.8519" rx="3.71104" transform="rotate(-90 96.459 67.4878)" fill="#51BF47"/>
<rect x="96.459" y="32.2764" width="7.42207" height="26.4444" rx="3.71104" transform="rotate(-90 96.459 32.2764)" fill="#51BF47"/>
<rect x="96.459" y="55.7505" width="7.42207" height="26.4444" rx="3.71104" transform="rotate(-90 96.459 55.7505)" fill="#51BF47"/>
<path fill-rule="evenodd" clip-rule="evenodd" d="M78.3145 40.3022C76.0713 40.3022 74.2529 42.1207 74.2529 44.3638V123.028C69.6386 124.691 66.3398 129.108 66.3398 134.296C66.3398 140.909 71.701 146.271 78.3144 146.271C84.9277 146.271 90.2889 140.909 90.2889 134.296C90.2889 129.109 86.9902 124.691 82.376 123.028V44.3638C82.376 42.1207 80.5576 40.3022 78.3145 40.3022Z" fill="white"/>
<path d="M150.638 45.429L173.454 70.0849L207.309 34.3892" stroke="#51BF47" stroke-width="8" stroke-linecap="square"/>
<path d="M189.744 29.4678H212.56V52.237" stroke="#51BF47" stroke-width="8" stroke-linecap="square"/>
</svg>
