<svg width="266" height="165" viewBox="0 0 266 165" fill="none" xmlns="http://www.w3.org/2000/svg">
<path d="M74.3633 20.6458C80.503 35.0074 88.6893 35.0074 94.829 20.6458C100.969 6.2841 109.155 6.2841 115.295 20.6458C121.434 35.0074 129.621 35.0074 135.76 20.6458C141.9 6.2841 150.086 6.2841 156.226 20.6458C162.366 35.0074 170.552 35.0074 176.692 20.6458C182.831 6.2841 191.018 6.2841 197.157 20.6458C203.297 35.0074 211.483 35.0074 217.623 20.6458" stroke="#51BF47" stroke-width="10" stroke-linecap="round"/>
<path d="M130.067 70.7617L122.425 77.5879L114.797 70.7757" stroke="#525252" stroke-width="6" stroke-linecap="square"/>
<path d="M122.434 54.1816L122.434 74.0479" stroke="#525252" stroke-width="6" stroke-linecap="square"/>
<path d="M177.013 70.2202L169.37 77.0464L161.743 70.2341" stroke="#525252" stroke-width="6" stroke-linecap="square"/>
<path d="M169.378 54.1816L169.378 73.7173" stroke="#525252" stroke-width="6" stroke-linecap="square"/>
<path fill-rule="evenodd" clip-rule="evenodd" d="M74.291 101.424V93.4901C74.4129 93.4789 74.5364 93.4731 74.6612 93.4731H213.64C215.84 93.4731 217.624 95.2567 217.624 97.4568C217.624 99.6569 215.84 101.44 213.64 101.44H74.6612C74.5364 101.44 74.4129 101.435 74.291 101.424Z" fill="#525252"/>
<path fill-rule="evenodd" clip-rule="evenodd" d="M74.3633 113.675V105.336H209.284C213.89 105.336 217.623 109.07 217.623 113.675H74.3633Z" fill="#525252"/>
<path fill-rule="evenodd" clip-rule="evenodd" d="M84.0563 135.781C82.0855 130.811 78.5828 126.616 74.1309 123.778V113.675H217.623V125.781C217.623 131.304 213.146 135.781 207.623 135.781H84.0563Z" fill="#51BF47"/>
<path fill-rule="evenodd" clip-rule="evenodd" d="M60.574 50.3237C55.7238 50.3237 51.792 54.2556 51.792 59.1057V127.289C45.2195 130.531 40.6982 137.3 40.6982 145.124C40.6982 156.101 49.597 165 60.5741 165C71.5513 165 80.45 156.101 80.45 145.124C80.45 137.3 75.9286 130.531 69.356 127.289V59.1057C69.356 54.2556 65.4241 50.3237 60.574 50.3237Z" fill="#51BF47"/>
<rect x="74.1309" y="63.2061" width="5.70143" height="13.7134" rx="2.85072" transform="rotate(-90 74.1309 63.2061)" fill="#51BF47"/>
<rect x="74.1309" y="81.2383" width="5.70143" height="13.7134" rx="2.85072" transform="rotate(-90 74.1309 81.2383)" fill="#51BF47"/>
<rect x="74.1309" y="72.2227" width="5.70143" height="20.3139" rx="2.85072" transform="rotate(-90 74.1309 72.2227)" fill="#51BF47"/>
<path fill-rule="evenodd" clip-rule="evenodd" d="M60.574 72.9209C58.8509 72.9209 57.454 74.3177 57.454 76.0409V136.469C53.9092 137.746 51.375 141.14 51.375 145.125C51.375 150.205 55.4933 154.323 60.5735 154.323C65.6537 154.323 69.772 150.205 69.772 145.125C69.772 141.14 67.2382 137.747 63.6939 136.469V76.0409C63.6939 74.3178 62.2971 72.9209 60.574 72.9209Z" fill="white"/>
</svg>
