<svg width="266" height="165" viewBox="0 0 266 165" fill="none" xmlns="http://www.w3.org/2000/svg">
<path d="M163.122 86.5975L181.04 104.515L210.066 75.4888" stroke="#51BF47" stroke-width="8" stroke-linecap="square"/>
<path d="M199.723 69.8711H216.183V86.2977" stroke="#51BF47" stroke-width="8" stroke-linecap="square"/>
<path d="M158.546 41.0212H183.112V65.5373" stroke="#51BF47" stroke-width="8" stroke-linecap="square"/>
<path d="M102.17 82.6728L121.585 102.088L177.558 46.116" stroke="#51BF47" stroke-width="8" stroke-linecap="square"/>
<path d="M59.2207 138.894H214.903V151C214.903 156.523 210.425 161 204.903 161H69.2207C63.6978 161 59.2207 156.523 59.2207 151V138.894Z" fill="#51BF47"/>
<path d="M59.2207 138.894C59.2207 134.288 62.9543 130.555 67.5598 130.555H206.564C211.169 130.555 214.903 134.288 214.903 138.894H59.2207Z" fill="#525252"/>
<rect x="59.5879" y="118.692" width="155.313" height="7.96734" rx="3.98367" fill="#525252"/>
<path d="M102.17 40.3848L105.059 43.2964C106.36 44.6076 107.998 45.5329 109.793 45.9697L113.337 46.832L112.286 49.1519C111.097 51.7751 111.097 54.7835 112.286 57.4067L113.337 59.7266L110.006 60.3029C107.522 60.7326 105.292 62.0846 103.762 64.0882L102.17 66.1738L99.8672 63.5554C98.3946 61.8809 96.4047 60.7466 94.2135 60.3328L91.0029 59.7266L92.1031 56.8288C92.9713 54.5421 92.9713 52.0165 92.1031 49.7298L91.0029 46.832L94.6173 45.993C96.558 45.5424 98.3199 44.5225 99.677 43.064L102.17 40.3848Z" fill="#525252"/>
<path d="M59.1791 56.976L66.3247 60.6477C67.9676 61.4919 69.8122 61.8646 71.654 61.7244L78.9542 61.1687L78.2284 67.6937C77.9099 70.5561 78.841 73.4167 80.7832 75.5432L85.2108 80.3909L78.5563 83.9061C76.3273 85.0835 74.6253 87.0592 73.7909 89.4379L71.6922 95.4203L65.3082 91.6386C63.3897 90.5021 61.1464 90.0394 58.9348 90.3241L51.917 91.2275L52.2549 84.221C52.3727 81.7779 51.5911 79.3763 50.0578 77.4706L45.6605 72.0054L52.1273 68.1045C53.8332 67.0755 55.1929 65.5603 56.032 63.7534L59.1791 56.976Z" fill="#525252"/>
<path d="M66.4939 27.9271L68.4069 28.4545C70.1876 28.9453 72.0695 28.9333 73.8438 28.4199L75.4469 27.9561L75.4832 28.3376C75.7561 31.2047 77.2519 33.8148 79.5875 35.4998L79.8984 35.7241L79.0137 36.4567C77.0723 38.0645 75.8097 40.3463 75.4787 42.8452L75.3968 43.4631L74.101 43.0206C71.9908 42.2999 69.7003 42.3052 67.5934 43.0356L66.4438 43.4342L66.2883 42.4549C65.9046 40.0392 64.6489 37.8479 62.7586 36.2956L61.9923 35.6662L63.1955 34.5488C64.6553 33.193 65.6768 31.4321 66.1291 29.4919L66.4939 27.9271Z" fill="#525252"/>
</svg>
