<svg width="41" height="40" viewBox="0 0 41 40" fill="none" xmlns="http://www.w3.org/2000/svg">
<g clip-path="url(#clip0_1_5)">
<path d="M20.0371 15.04C19.0561 15.04 18.0971 15.3309 17.2815 15.8759C16.4658 16.4209 15.8301 17.1956 15.4547 18.1019C15.0793 19.0082 14.981 20.0055 15.1724 20.9676C15.3638 21.9298 15.8362 22.8136 16.5299 23.5072C17.2235 24.2009 18.1073 24.6733 19.0695 24.8647C20.0316 25.0561 21.0289 24.9579 21.9352 24.5824C22.8415 24.207 23.6162 23.5713 24.1612 22.7556C24.7062 21.94 24.9971 20.981 24.9971 20C24.9971 19.3486 24.8688 18.7037 24.6196 18.1019C24.3703 17.5001 24.0049 16.9533 23.5444 16.4928C23.0838 16.0322 22.537 15.6668 21.9352 15.4176C21.3334 15.1683 20.6885 15.04 20.0371 15.04ZM39.8971 10.14C39.8866 8.59552 39.6022 7.06514 39.0571 5.62C38.6557 4.56252 38.0346 3.60219 37.2347 2.80237C36.4349 2.00255 35.4746 1.38144 34.4171 0.98C32.972 0.434928 31.4416 0.150522 29.8971 0.14C27.3171 -1.3411e-07 26.5571 0 20.0371 0C13.5171 0 12.7571 -1.3411e-07 10.1771 0.14C8.63263 0.150522 7.10225 0.434928 5.65711 0.98C4.59963 1.38144 3.6393 2.00255 2.83948 2.80237C2.03966 3.60219 1.41854 4.56252 1.01711 5.62C0.472037 7.06514 0.187631 8.59552 0.177109 10.14C0.0371092 12.72 0.0371094 13.48 0.0371094 20C0.0371094 26.52 0.0371092 27.28 0.177109 29.86C0.198637 31.4099 0.482658 32.945 1.01711 34.4C1.41677 35.4526 2.03737 36.4074 2.83711 37.2C3.6335 38.0046 4.59589 38.6257 5.65711 39.02C7.10225 39.5651 8.63263 39.8495 10.1771 39.86C12.7571 40 13.5171 40 20.0371 40C26.5571 40 27.3171 40 29.8971 39.86C31.4416 39.8495 32.972 39.5651 34.4171 39.02C35.4783 38.6257 36.4407 38.0046 37.2371 37.2C38.0369 36.4074 38.6575 35.4526 39.0571 34.4C39.6017 32.9478 39.886 31.4109 39.8971 29.86C40.0371 27.28 40.0371 26.52 40.0371 20C40.0371 13.48 40.0371 12.72 39.8971 10.14ZM34.8171 26.14C34.7529 27.3742 34.4895 28.5899 34.0371 29.74C33.6488 30.6994 33.0716 31.5709 32.3398 32.3027C31.608 33.0345 30.7365 33.6117 29.7771 34C28.6161 34.4272 27.3936 34.6636 26.1571 34.7H13.9171C12.6806 34.6636 11.4581 34.4272 10.2971 34C9.30532 33.6314 8.40966 33.0435 7.67711 32.28C6.95244 31.5625 6.3928 30.6957 6.03711 29.74C5.60822 28.5802 5.37832 27.3563 5.35711 26.12V13.88C5.37832 12.6437 5.60822 11.4198 6.03711 10.26C6.40567 9.26821 6.99366 8.37255 7.75711 7.64C8.47778 6.91925 9.34364 6.36019 10.2971 6C11.4581 5.57281 12.6806 5.33642 13.9171 5.3H26.1571C27.3936 5.33642 28.6161 5.57281 29.7771 6C30.7689 6.36856 31.6646 6.95655 32.3971 7.72C33.1218 8.4375 33.6814 9.30426 34.0371 10.26C34.4643 11.421 34.7007 12.6435 34.7371 13.88V20C34.7371 24.12 34.8771 24.54 34.8171 26.12V26.14ZM31.6171 11.26C31.379 10.614 31.0035 10.0273 30.5167 9.54043C30.0298 9.05357 29.4431 8.67813 28.7971 8.44C27.9101 8.13252 26.9758 7.98358 26.0371 8H14.0371C13.0936 8.00922 12.1592 8.18527 11.2771 8.52C10.641 8.74731 10.0605 9.10743 9.57428 9.5764C9.08806 10.0454 8.70723 10.6125 8.45711 11.24C8.16666 12.1307 8.02477 13.0632 8.03711 14V26C8.05694 26.9424 8.23265 27.875 8.55711 28.76C8.79524 29.406 9.17068 29.9927 9.65754 30.4796C10.1444 30.9664 10.7311 31.3419 11.3771 31.58C12.2304 31.8938 13.1284 32.0694 14.0371 32.1H26.0371C26.9806 32.0908 27.915 31.9147 28.7971 31.58C29.4431 31.3419 30.0298 30.9664 30.5167 30.4796C31.0035 29.9927 31.379 29.406 31.6171 28.76C31.9518 27.8779 32.1279 26.9435 32.1371 26V14C32.1377 13.0556 31.9613 12.1194 31.6171 11.24V11.26ZM20.0371 27.64C19.0348 27.64 18.0422 27.4422 17.1164 27.0581C16.1906 26.6739 15.3497 26.1108 14.6419 25.4011C13.934 24.6914 13.3732 23.849 12.9914 22.9222C12.6096 21.9954 12.4145 21.0024 12.4171 20C12.4171 18.4881 12.8657 17.0102 13.7061 15.7534C14.5465 14.4966 15.7409 13.5173 17.138 12.9397C18.5352 12.362 20.0724 12.2119 21.555 12.5083C23.0375 12.8047 24.3988 13.5343 25.4665 14.6048C26.5342 15.6753 27.2602 17.0385 27.5527 18.5218C27.8453 20.0051 27.6911 21.5419 27.1098 22.9376C26.5285 24.3333 25.5461 25.5251 24.2871 26.3622C23.0281 27.1992 21.549 27.644 20.0371 27.64ZM28.0371 13.86C27.595 13.8132 27.1858 13.6044 26.8885 13.2739C26.5911 12.9434 26.4266 12.5146 26.4266 12.07C26.4266 11.6254 26.5911 11.1966 26.8885 10.8661C27.1858 10.5356 27.595 10.3268 28.0371 10.28C28.4792 10.3268 28.8884 10.5356 29.1857 10.8661C29.4831 11.1966 29.6476 11.6254 29.6476 12.07C29.6476 12.5146 29.4831 12.9434 29.1857 13.2739C28.8884 13.6044 28.4792 13.8132 28.0371 13.86Z" fill="white"/>
</g>
<defs>
<clipPath id="clip0_1_5">
<rect width="40" height="40" fill="white" transform="translate(0.0371094)"/>
</clipPath>
</defs>
</svg>
