<svg width="41" height="40" viewBox="0 0 41 40" fill="none" xmlns="http://www.w3.org/2000/svg">
<path fill-rule="evenodd" clip-rule="evenodd" d="M16.6588 21.8294L20.5399 24.4831L24.281 21.9021L32.667 30.1757C32.4462 30.247 32.2104 30.2854 31.9649 30.2854H9.10935C8.80764 30.2854 8.51965 30.2264 8.25497 30.1208L16.6588 21.8294ZM34.251 15.0301V27.9993C34.251 28.338 34.1769 28.6589 34.0453 28.9483L25.8252 20.8379L34.251 15.0301ZM6.82324 15.1028L15.1092 20.7693L6.96861 28.8029C6.8722 28.546 6.82295 28.2737 6.82324 27.9993V15.1028ZM31.9649 9.7146C33.2266 9.7146 34.251 10.7377 34.251 12.0007V12.8043L20.5344 22.26L6.82324 12.8825V12.0007C6.82324 10.739 7.8463 9.7146 9.10935 9.7146H31.9649Z" fill="white"/>
</svg>
