<svg width="41" height="40" viewBox="0 0 41 40" fill="none" xmlns="http://www.w3.org/2000/svg">
<path d="M20.5371 19.1667C19.432 19.1667 18.3722 18.7277 17.5908 17.9463C16.8094 17.1649 16.3704 16.1051 16.3704 15C16.3704 13.8949 16.8094 12.8351 17.5908 12.0537C18.3722 11.2723 19.432 10.8333 20.5371 10.8333C21.6422 10.8333 22.702 11.2723 23.4834 12.0537C24.2648 12.8351 24.7038 13.8949 24.7038 15C24.7038 15.5472 24.596 16.089 24.3866 16.5945C24.1772 17.1 23.8703 17.5594 23.4834 17.9463C23.0965 18.3332 22.6371 18.6401 22.1316 18.8495C21.6261 19.0589 21.0843 19.1667 20.5371 19.1667ZM20.5371 3.33333C17.4429 3.33333 14.4755 4.5625 12.2875 6.75042C10.0996 8.93835 8.87044 11.9058 8.87044 15C8.87044 23.75 20.5371 36.6667 20.5371 36.6667C20.5371 36.6667 32.2038 23.75 32.2038 15C32.2038 11.9058 30.9746 8.93835 28.7867 6.75042C26.5988 4.5625 23.6313 3.33333 20.5371 3.33333Z" fill="white"/>
</svg>
