<svg width="41" height="40" viewBox="0 0 41 40" fill="none" xmlns="http://www.w3.org/2000/svg">
<path d="M33.3437 25.6127L27.4018 23.0662C27.148 22.958 26.8659 22.9352 26.598 23.0012C26.33 23.0673 26.0908 23.2185 25.9163 23.4323L23.2849 26.6472C19.1552 24.7001 15.8317 21.3766 13.8846 17.2469L17.0996 14.6155C17.3137 14.4413 17.4653 14.2021 17.5313 13.934C17.5974 13.666 17.5743 13.3838 17.4656 13.13L14.9191 7.18813C14.7998 6.9146 14.5888 6.69127 14.3224 6.55665C14.0561 6.42203 13.7512 6.38456 13.4602 6.4507L7.94271 7.72396C7.66215 7.78875 7.41184 7.94672 7.23262 8.17209C7.0534 8.39746 6.95587 8.67692 6.95593 8.96486C6.95593 22.5728 17.9855 33.5812 31.5722 33.5812C31.8603 33.5814 32.1399 33.4839 32.3653 33.3047C32.5908 33.1254 32.7489 32.875 32.8137 32.5944L34.0869 27.077C34.1526 26.7845 34.1144 26.4784 33.9787 26.2111C33.8431 25.9439 33.6185 25.7323 33.3437 25.6127Z" fill="white"/>
</svg>
