<svg width="41" height="40" viewBox="0 0 41 40" fill="none" xmlns="http://www.w3.org/2000/svg">
<g clip-path="url(#clip0_1_8)">
<path d="M20.0371 0C8.99711 0 0.0371094 8.96 0.0371094 20C0.0371094 31.04 8.99711 40 20.0371 40C31.0771 40 40.0371 31.04 40.0371 20C40.0371 8.96 31.0771 0 20.0371 0ZM29.3171 13.6C29.0171 16.76 27.7171 24.44 27.0571 27.98C26.7771 29.48 26.2171 29.98 25.6971 30.04C24.5371 30.14 23.6571 29.28 22.5371 28.54C20.7771 27.38 19.7771 26.66 18.0771 25.54C16.0971 24.24 17.3771 23.52 18.5171 22.36C18.8171 22.06 23.9371 17.4 24.0371 16.98C24.051 16.9164 24.0492 16.8503 24.0317 16.7876C24.0143 16.7249 23.9818 16.6673 23.9371 16.62C23.8171 16.52 23.6571 16.56 23.5171 16.58C23.3371 16.62 20.5371 18.48 15.0771 22.16C14.2771 22.7 13.5571 22.98 12.9171 22.96C12.1971 22.94 10.8371 22.56 9.81711 22.22C8.55711 21.82 7.57711 21.6 7.65711 20.9C7.69711 20.54 8.19711 20.18 9.13711 19.8C14.9771 17.26 18.8571 15.58 20.7971 14.78C26.3571 12.46 27.4971 12.06 28.2571 12.06C28.4171 12.06 28.7971 12.1 29.0371 12.3C29.2371 12.46 29.2971 12.68 29.3171 12.84C29.2971 12.96 29.3371 13.32 29.3171 13.6Z" fill="white"/>
</g>
<defs>
<clipPath id="clip0_1_8">
<rect width="40" height="40" fill="white" transform="translate(0.0371094)"/>
</clipPath>
</defs>
</svg>
