<svg width="41" height="40" viewBox="0 0 41 40" fill="none" xmlns="http://www.w3.org/2000/svg">
<g clip-path="url(#clip0_1_2)">
<path d="M15.8521 0.00666702L17.0671 0.00166702H23.0071L24.2238 0.00666702L25.7471 0.0233337L26.4688 0.0350004L27.1654 0.0533337L27.8371 0.076667L28.4838 0.103334L29.1071 0.138334L29.7071 0.18L30.2821 0.23L30.8371 0.285C33.7371 0.611667 35.7254 1.31167 37.2254 2.81167C38.7254 4.31167 39.4254 6.29833 39.7521 9.2L39.8088 9.755L39.8571 10.3317L39.8988 10.9317L39.9321 11.5533L39.9738 12.5333L39.9938 13.2167L40.0154 14.29L40.0304 15.815L40.0371 17.4483L40.0354 22.97L40.0304 24.1867L40.0138 25.71L40.0021 26.4317L39.9838 27.1283L39.9604 27.8L39.9338 28.4467L39.8988 29.07L39.8571 29.67L39.8071 30.245L39.7521 30.8C39.4254 33.7 38.7254 35.6883 37.2254 37.1883C35.7254 38.6883 33.7388 39.3883 30.8371 39.715L30.2821 39.7717L29.7054 39.82L29.1054 39.8617L28.4838 39.895L27.5038 39.9367L26.8204 39.9567L25.7471 39.9783L24.2221 39.9933L22.5888 40L17.0671 39.9983L15.8504 39.9933L14.3271 39.9767L13.6054 39.965L12.9088 39.9467L12.2371 39.9233L11.5904 39.8967L10.9671 39.8617L10.3671 39.82L9.79211 39.77L9.23711 39.715C6.33711 39.3883 4.34878 38.6883 2.84878 37.1883C1.34878 35.6883 0.648776 33.7017 0.322109 30.8L0.265443 30.245L0.217109 29.6683L0.175443 29.0683L0.142109 28.4467L0.100443 27.4667L0.0804427 26.7833L0.058776 25.71L0.043776 24.185L0.0371094 22.5517L0.038776 17.03L0.043776 15.8133L0.0604427 14.29L0.0721094 13.5683L0.0904427 12.8717L0.113776 12.2L0.140443 11.5533L0.175443 10.93L0.217109 10.33L0.267109 9.755L0.322109 9.2C0.648776 6.3 1.34878 4.31167 2.84878 2.81167C4.34878 1.31167 6.33544 0.611667 9.23711 0.285L9.79211 0.228334L10.3688 0.18L10.9688 0.138334L11.5904 0.105L12.5704 0.0633337L13.2538 0.0433337L14.3271 0.021667L15.8521 0.00666702ZM11.3538 12.1667H6.78711C7.00378 22.5667 12.2038 28.8167 21.3204 28.8167H21.8371V22.8667C25.1871 23.2 27.7204 25.65 28.7371 28.8167H33.4704C32.1704 24.0833 28.7538 21.4667 26.6204 20.4667C28.7538 19.2333 31.7538 16.2333 32.4704 12.1667H28.1704C27.2371 15.4667 24.4704 18.4667 21.8371 18.75V12.1667H17.5371V23.7C14.8704 23.0333 11.5038 19.8 11.3538 12.1667Z" fill="white"/>
</g>
<defs>
<clipPath id="clip0_1_2">
<rect width="40" height="40" fill="white" transform="translate(0.0371094)"/>
</clipPath>
</defs>
</svg>
